<svg width="33" height="33" viewBox="0 0 33 33" fill="none" xmlns="http://www.w3.org/2000/svg">
<g clip-path="url(#clip0_3_3045)">
<path d="M16.5016 0.799805C16.5016 11.7474 17.9821 15.3209 21.1957 12.101C17.9821 15.3019 21.5524 16.7982 32.5 16.7982C21.5524 16.7982 17.9789 18.2819 21.1957 21.4955C17.9821 18.2819 16.5016 21.8522 16.5016 32.7966C16.5016 21.8522 15.0179 18.2756 11.8043 21.4955C15.0179 18.2819 11.4476 16.7982 0.5 16.7982C11.4476 16.7982 15.0211 15.3146 11.8043 12.101C15.0179 15.3019 16.5016 11.7474 16.5016 0.799805Z" fill="#7A79DB"/>
<path d="M26.941 3.26526C26.941 6.32731 27.3545 7.328 28.2542 6.42201C27.3545 7.32169 28.352 7.73522 31.4109 7.73522C28.3457 7.73522 27.3482 8.15191 28.2542 9.04843C27.3545 8.15191 26.941 9.14945 26.941 12.2052C26.941 9.14313 26.5243 8.1456 25.6246 9.04843C26.5243 8.15191 25.5267 7.73522 22.4678 7.73522C25.533 7.73522 26.5306 7.32169 25.6246 6.42201C26.5243 7.328 26.941 6.32731 26.941 3.26526Z" fill="#7A79DB"/>
<path d="M13.0513 4.23438C13.0513 5.67701 13.2438 6.14737 13.6826 5.72436C13.2565 6.14737 13.73 6.35571 15.1726 6.35571C13.73 6.35571 13.2565 6.55143 13.6826 6.98706C13.2565 6.56406 13.0513 7.03441 13.0513 8.47705C13.0513 7.03441 12.8524 6.56406 12.4199 6.98706C12.8461 6.56406 12.3726 6.35571 10.9299 6.35571C12.3726 6.35571 12.8461 6.15999 12.4199 5.72436C12.8524 6.14737 13.0513 5.67701 13.0513 4.23438Z" fill="#7A79DB"/>
<path d="M24.5765 10.8193C24.5765 12.262 24.7691 12.7323 25.2079 12.3093C24.7817 12.7323 25.2552 12.9407 26.6979 12.9407C25.2521 12.9407 24.7817 13.1364 25.2079 13.572C24.7817 13.149 24.5765 13.6194 24.5765 15.0652C24.5765 13.6194 24.3808 13.149 23.9452 13.572C24.3713 13.149 23.8978 12.9407 22.4552 12.9407C23.8978 12.9407 24.3713 12.745 23.9452 12.3093C24.3777 12.7323 24.5765 12.262 24.5765 10.8193Z" fill="#7A79DB"/>
<path d="M9.02641 23.2759C9.02641 24.7185 9.22213 25.192 9.65776 24.7659C9.23476 25.192 9.70511 25.3972 11.1477 25.3972C9.70511 25.3972 9.23476 25.5929 9.65776 26.0286C9.23476 25.6024 9.02641 26.0759 9.02641 27.5186C9.02641 26.0759 8.83069 25.6024 8.39506 26.0286C8.81806 25.6024 8.34771 25.3972 6.90192 25.3972C8.34771 25.3972 8.81806 25.2015 8.39506 24.7659C8.83069 25.192 9.02641 24.7185 9.02641 23.2759Z" fill="#7A79DB"/>
<path d="M4.09553 9.3988C4.09553 11.3276 4.35754 11.9558 4.9226 11.3907C4.35754 11.9589 4.98573 12.2178 6.91767 12.2178C4.98573 12.2178 4.35754 12.4798 4.9226 13.048C4.35754 12.4798 4.09553 13.1111 4.09553 15.0399C4.09553 13.1111 3.83352 12.4798 3.26846 13.048C3.83352 12.4798 3.20533 12.2178 1.27655 12.2178C3.20533 12.2178 3.83352 11.9589 3.26846 11.3907C3.83352 11.9558 4.09553 11.3276 4.09553 9.3988Z" fill="#7A79DB"/>
<path d="M23.3518 25.3846C23.3518 27.3166 23.6138 27.9448 24.1788 27.3797C23.6138 27.9448 24.242 28.2068 26.1739 28.2068C24.242 28.2068 23.6138 28.4688 24.1788 29.0338C23.6138 28.4688 23.3518 29.097 23.3518 31.0258C23.3518 29.097 23.0897 28.4688 22.5247 29.0338C23.0897 28.4688 22.4616 28.2068 20.5328 28.2068C22.4616 28.2068 23.0897 27.9448 22.5247 27.3797C23.0897 27.9448 23.3518 27.3166 23.3518 25.3846Z" fill="#7A79DB"/>
</g>
<defs>
<clipPath id="clip0_3_3045">
<rect width="32" height="32" fill="white" transform="translate(0.5 0.799805)"/>
</clipPath>
</defs>
</svg>
