<svg width="29" height="37" viewBox="0 0 29 37" fill="none" xmlns="http://www.w3.org/2000/svg">
<path d="M13.3392 11.9166H14.1235C15.5432 11.9166 16.6948 13.0682 16.6948 14.488V14.5142C16.6948 15.6143 17.2351 16.1643 18.3157 16.1643C19.4031 16.1643 20.4935 16.141 21.5809 16.176C22.0998 16.1934 22.2631 16.0331 22.2573 15.5083C22.2427 14.3043 22.2427 12.2811 22.2427 10.5843C22.2427 8.94298 23.575 7.61359 25.2134 7.61359C26.8548 7.61359 28.1842 8.94298 28.1842 10.5843V26.1406C28.1842 27.779 26.8548 29.1055 25.2193 29.1055C23.5808 29.1055 22.2544 27.7761 22.2544 26.1406V21.3332C22.2544 20.8901 21.8958 20.5286 21.4497 20.5286C20.6976 20.5286 19.9716 20.5286 19.2486 20.5286C18.5985 20.5344 17.9484 20.581 17.3012 20.5606C16.8289 20.5461 16.6773 20.7239 16.686 21.1816C16.689 21.3507 16.6919 21.5227 16.6948 21.6918C16.7123 23.336 15.3771 24.6771 13.7328 24.6771C12.0973 24.6771 10.7708 23.3506 10.7708 21.7151V14.4851C10.7708 13.0653 11.9224 11.9137 13.3421 11.9137L13.3392 11.9166Z" fill="white"/>
<path d="M16.6744 31.108C16.6744 29.4866 15.3606 28.1722 13.7401 28.1722C12.1195 28.1722 10.8058 29.4866 10.8058 31.108V33.3761C10.8058 34.9975 12.1195 36.3119 13.7401 36.3119C15.3606 36.3119 16.6744 34.9975 16.6744 33.3761V31.108Z" fill="white"/>
<path d="M16.654 3.41195C16.654 1.79701 15.3448 0.487854 13.7299 0.487854C12.1149 0.487854 10.8058 1.79701 10.8058 3.41195V5.61595C10.8058 7.23088 12.1149 8.54004 13.7299 8.54004C15.3448 8.54004 16.654 7.23088 16.654 5.61595V3.41195Z" fill="white"/>
<path d="M5.94147 10.4024C5.94147 8.76175 4.61143 7.4317 2.97074 7.4317C1.33004 7.4317 0 8.76175 0 10.4024V26.1307C0 27.7714 1.33004 29.1015 2.97074 29.1015C4.61143 29.1015 5.94147 27.7714 5.94147 26.1307V10.4024Z" fill="white"/>
</svg>
