<svg width="85" height="89" viewBox="0 0 85 89" fill="none" xmlns="http://www.w3.org/2000/svg">
<g filter="url(#filter0_dd_30_7)">
<circle cx="42.5" cy="44.2998" r="40" fill="white"/>
</g>
<g filter="url(#filter1_dd_30_7)">
<circle cx="42.5" cy="44.2998" r="28" fill="url(#paint0_linear_30_7)"/>
</g>
<path d="M36.82 36.9848L36.385 36.4848C36.2491 36.339 36.1597 36.1559 36.1285 35.9591C36.0974 35.7622 36.1257 35.5604 36.21 35.3798C36.2579 35.2896 36.3167 35.2056 36.385 35.1298C36.505 34.9948 36.64 34.8748 36.765 34.7448C36.9451 34.5664 37.1862 34.463 37.4396 34.4555C37.693 34.4481 37.9398 34.5372 38.13 34.7048L39.1 35.5498C39.135 35.5848 39.16 35.5898 39.2 35.5498C39.728 35.2225 40.3055 34.9827 40.91 34.8398C40.9223 34.8392 40.9343 34.8361 40.9454 34.8306C40.9564 34.8252 40.9662 34.8176 40.9742 34.8082C40.9821 34.7988 40.9881 34.7879 40.9917 34.7762C40.9953 34.7644 40.9964 34.752 40.995 34.7398C40.995 34.3148 41.05 33.8848 41.08 33.4548C41.1002 33.2037 41.2144 32.9694 41.3998 32.7989C41.5852 32.6283 41.8281 32.534 42.08 32.5348C42.28 32.5348 42.48 32.5348 42.675 32.5348C42.9069 32.5524 43.1247 32.6531 43.2882 32.8185C43.4517 32.9839 43.55 33.2027 43.565 33.4348C43.6 33.8698 43.625 34.3048 43.655 34.7398C43.655 34.7948 43.655 34.8148 43.73 34.8298C44.3346 34.9727 44.9121 35.2125 45.44 35.5398C45.4554 35.5528 45.4749 35.56 45.495 35.56C45.5152 35.56 45.5347 35.5528 45.55 35.5398C45.87 35.2548 46.185 34.9748 46.51 34.6998C46.6734 34.5403 46.889 34.4454 47.1169 34.4325C47.3449 34.4196 47.5698 34.4897 47.75 34.6298C47.9656 34.8012 48.1618 34.9957 48.335 35.2098C48.4689 35.3773 48.5418 35.5854 48.5418 35.7998C48.5418 36.0142 48.4689 36.2223 48.335 36.3898C48.195 36.5698 48.04 36.7298 47.895 36.8898L47.84 36.9498H52.26C52.6862 36.9457 53.1018 37.0828 53.4418 37.3397C53.7819 37.5965 54.0274 37.9587 54.14 38.3698C54.1879 38.5458 54.2114 38.7274 54.21 38.9098C54.21 42.3998 54.21 45.8998 54.21 49.4098V50.8748C54.21 51.3464 54.0378 51.8018 53.7256 52.1554C53.4135 52.5089 52.983 52.7363 52.515 52.7948H52.275H44.71C44.679 52.7902 44.6474 52.7974 44.6215 52.815C44.5956 52.8326 44.5772 52.8593 44.57 52.8898C44.367 53.3382 44.2728 53.8281 44.295 54.3198C44.3221 54.7083 44.4222 55.0883 44.59 55.4398C44.59 55.4848 44.635 55.4848 44.67 55.4848H45.705C45.7684 55.4806 45.8311 55.4989 45.8823 55.5364C45.9335 55.5739 45.9699 55.6282 45.985 55.6898C45.993 55.7263 45.9934 55.7641 45.9863 55.8008C45.9791 55.8375 45.9646 55.8723 45.9435 55.9032C45.9225 55.9341 45.8953 55.9604 45.8638 55.9804C45.8322 56.0004 45.7969 56.0139 45.76 56.0198H38.955C38.9118 56.022 38.8686 56.014 38.8291 55.9964C38.7895 55.9788 38.7546 55.9521 38.7274 55.9184C38.7001 55.8848 38.6811 55.8452 38.672 55.8029C38.6629 55.7605 38.664 55.7167 38.675 55.6748C38.692 55.6159 38.7284 55.5645 38.7784 55.5291C38.8283 55.4937 38.8889 55.4763 38.95 55.4798H39.95C39.9731 55.483 39.9965 55.4776 40.0158 55.4647C40.0352 55.4518 40.0491 55.4323 40.055 55.4098C40.2454 55.0082 40.3442 54.5693 40.3442 54.1248C40.3442 53.6803 40.2454 53.2414 40.055 52.8398C40.055 52.7898 40 52.7898 39.955 52.7898H32.38C32.123 52.7918 31.8681 52.7426 31.6303 52.645C31.3925 52.5474 31.1765 52.4034 30.9949 52.2214C30.8134 52.0394 30.6699 51.823 30.5729 51.5849C30.476 51.3469 30.4274 51.0919 30.43 50.8348V38.9348C30.4266 38.472 30.5892 38.0234 30.8883 37.6702C31.1873 37.317 31.603 37.0827 32.06 37.0098C32.164 36.9913 32.2695 36.983 32.375 36.9848H36.82ZM30.98 49.3648H53.665V38.8648C53.6617 38.6617 53.6084 38.4625 53.51 38.2848C53.3959 38.051 53.2168 37.855 52.9943 37.7202C52.7718 37.5855 52.5151 37.5176 52.255 37.5248H47.415V37.5698C47.737 38.0958 47.9733 38.6696 48.115 39.2698C48.115 39.3148 48.145 39.3248 48.185 39.3298L49.46 39.4148C49.6858 39.4199 49.9027 39.5035 50.0734 39.6514C50.2441 39.7993 50.3578 40.0021 50.395 40.2248C50.4081 40.3912 50.4081 40.5584 50.395 40.7248C50.4049 40.8529 50.4049 40.9816 50.395 41.1098C50.3521 41.3276 50.2379 41.525 50.0704 41.6707C49.9029 41.8165 49.6917 41.9023 49.47 41.9148L48.195 41.9998C48.1746 41.9984 48.1544 42.0048 48.1386 42.0178C48.1228 42.0309 48.1125 42.0495 48.11 42.0698C47.9664 42.6796 47.7249 43.2621 47.395 43.7948C47.37 43.8398 47.395 43.8598 47.395 43.8948L48.23 44.8448C48.405 45.0364 48.4987 45.2885 48.4912 45.5479C48.4837 45.8073 48.3757 46.0536 48.19 46.2348C48.06 46.3548 47.945 46.4848 47.82 46.6048C47.7249 46.7019 47.6085 46.7755 47.48 46.8198C47.3103 46.8786 47.1279 46.8906 46.9519 46.8545C46.7759 46.8184 46.6129 46.7356 46.48 46.6148L45.515 45.7698C45.509 45.7633 45.5016 45.7581 45.4934 45.7546C45.4853 45.751 45.4764 45.7492 45.4675 45.7492C45.4586 45.7492 45.4498 45.751 45.4416 45.7546C45.4335 45.7581 45.4261 45.7633 45.42 45.7698C44.8869 46.0988 44.3046 46.3402 43.695 46.4848C43.645 46.4848 43.63 46.5148 43.63 46.5598C43.6 47.0048 43.575 47.4448 43.535 47.8898C43.521 48.1132 43.4286 48.3245 43.274 48.4864C43.1194 48.6484 42.9126 48.7505 42.69 48.7748C42.48 48.7748 42.265 48.7748 42.055 48.7748C41.8023 48.7755 41.5587 48.6805 41.3732 48.5089C41.1877 48.3373 41.074 48.1018 41.055 47.8498L40.965 46.5498C40.965 46.4998 40.965 46.4848 40.9 46.4748C40.2946 46.3297 39.7158 46.0901 39.185 45.7648C39.1691 45.7489 39.1475 45.74 39.125 45.74C39.1025 45.74 39.081 45.7489 39.065 45.7648L38.115 46.5998C37.9249 46.771 37.6763 46.8627 37.4206 46.8562C37.1648 46.8497 36.9212 46.7454 36.74 46.5648C36.62 46.4348 36.49 46.3148 36.365 46.1898C36.2686 46.0961 36.195 45.9815 36.15 45.8548C36.087 45.6812 36.0732 45.4936 36.1103 45.3126C36.1474 45.1317 36.2338 44.9646 36.36 44.8298C36.635 44.5098 36.91 44.1948 37.19 43.8848C37.1977 43.8773 37.2039 43.8684 37.2081 43.8585C37.2123 43.8486 37.2144 43.838 37.2144 43.8273C37.2144 43.8166 37.2123 43.8059 37.2081 43.7961C37.2039 43.7862 37.1977 43.7773 37.19 43.7698C36.8619 43.2422 36.6221 42.6646 36.48 42.0598C36.4775 42.0381 36.4668 42.0183 36.45 42.0043C36.4333 41.9903 36.4118 41.9834 36.39 41.9848L35.12 41.8998C34.8654 41.8845 34.6262 41.7724 34.4514 41.5865C34.2767 41.4006 34.1796 41.1549 34.18 40.8998C34.18 40.7298 34.18 40.5598 34.18 40.3998C34.1753 40.1567 34.263 39.9208 34.4254 39.7398C34.5878 39.5589 34.8128 39.4463 35.055 39.4248C35.5 39.3798 35.945 39.3598 36.39 39.3298C36.445 39.3298 36.465 39.3298 36.48 39.2598C36.6069 38.7343 36.8072 38.2294 37.075 37.7598C37.115 37.6898 37.155 37.6248 37.195 37.5448H32.325C31.9716 37.5435 31.6319 37.6819 31.38 37.9298C31.2397 38.0616 31.1285 38.2214 31.0536 38.3988C30.9786 38.5762 30.9417 38.7673 30.945 38.9598V49.3848L30.98 49.3648ZM47.22 46.3298C47.318 46.3211 47.4099 46.2787 47.48 46.2098L47.875 45.8148C47.9407 45.747 47.9812 45.6588 47.99 45.5648C47.9944 45.4987 47.9856 45.4324 47.9642 45.3698C47.9427 45.3071 47.909 45.2493 47.865 45.1998L46.865 44.0798C46.8343 44.0549 46.8091 44.0238 46.791 43.9886C46.7729 43.9534 46.7623 43.9148 46.76 43.8753C46.7576 43.8358 46.7635 43.7962 46.7773 43.7591C46.7911 43.722 46.8125 43.6882 46.84 43.6598C47.2246 43.0761 47.4945 42.4245 47.635 41.7398C47.6362 41.7006 47.6454 41.662 47.6622 41.6265C47.679 41.591 47.7029 41.5593 47.7325 41.5335C47.7621 41.5077 47.7966 41.4883 47.8341 41.4764C47.8715 41.4646 47.911 41.4606 47.95 41.4648L49.45 41.3648C49.5096 41.3642 49.5683 41.3516 49.6228 41.3276C49.6773 41.3036 49.7264 41.2689 49.7671 41.2254C49.8077 41.1819 49.8392 41.1307 49.8594 41.0747C49.8797 41.0187 49.8884 40.9592 49.885 40.8998C49.885 40.7465 49.885 40.5915 49.885 40.4348C49.8913 40.3718 49.8843 40.3082 49.8646 40.248C49.8449 40.1878 49.8128 40.1325 49.7705 40.0854C49.7281 40.0383 49.6764 40.0006 49.6186 39.9747C49.5609 39.9488 49.4983 39.9352 49.435 39.9348L47.935 39.8348C47.8618 39.8391 47.7898 39.8149 47.7339 39.7674C47.678 39.7199 47.6426 39.6527 47.635 39.5798C47.57 39.3148 47.5 39.0798 47.415 38.7948C47.2698 38.3744 47.0679 37.9757 46.815 37.6098C46.7735 37.561 46.7506 37.4989 46.7506 37.4348C46.7506 37.3707 46.7735 37.3086 46.815 37.2598L47 37.0448C47.275 36.7298 47.555 36.4198 47.825 36.1048C47.8689 36.0628 47.9038 36.0123 47.9276 35.9565C47.9515 35.9006 47.9638 35.8405 47.9638 35.7798C47.9638 35.7191 47.9515 35.659 47.9276 35.6031C47.9038 35.5473 47.8689 35.4968 47.825 35.4548C47.705 35.3448 47.595 35.2198 47.475 35.1148C47.4139 35.0573 47.3403 35.0145 47.26 34.9898C47.1837 34.9723 47.1041 34.9746 47.0288 34.9964C46.9535 35.0183 46.8851 35.0591 46.83 35.1148L45.705 36.1148C45.6574 36.1658 45.5921 36.1967 45.5225 36.2013C45.4528 36.206 45.384 36.184 45.33 36.1398C45.0639 35.9623 44.7829 35.8084 44.49 35.6798C44.1228 35.5179 43.7388 35.3972 43.345 35.3198C43.2835 35.3117 43.2267 35.2822 43.1847 35.2365C43.1427 35.1908 43.118 35.1318 43.115 35.0698C43.115 34.7948 43.08 34.5148 43.06 34.2398C43.04 33.9648 43.03 33.7398 43.005 33.4898C42.9973 33.3775 42.9459 33.2727 42.8617 33.1979C42.7776 33.1231 42.6675 33.0843 42.555 33.0898H42.085C42.0213 33.0818 41.9566 33.0877 41.8954 33.1072C41.8341 33.1266 41.7778 33.159 41.7303 33.2022C41.6828 33.2455 41.6452 33.2985 41.6202 33.3576C41.5951 33.4167 41.5831 33.4806 41.585 33.5448C41.55 34.0448 41.52 34.5448 41.485 35.0448C41.4866 35.1131 41.4622 35.1795 41.4167 35.2306C41.3712 35.2816 41.3081 35.3135 41.24 35.3198C40.5418 35.4572 39.8775 35.7307 39.285 36.1248C39.2569 36.1503 39.2239 36.1699 39.188 36.1823C39.152 36.1946 39.114 36.1996 39.0761 36.1968C39.0382 36.194 39.0013 36.1835 38.9676 36.1659C38.9339 36.1484 38.9041 36.1242 38.88 36.0948L38.025 35.3498C37.935 35.2748 37.845 35.1998 37.76 35.1198C37.7176 35.0758 37.6667 35.0408 37.6104 35.0169C37.5542 34.993 37.4937 34.9807 37.4325 34.9807C37.3714 34.9807 37.3109 34.993 37.2546 35.0169C37.1984 35.0408 37.1475 35.0758 37.105 35.1198C37.006 35.2338 36.8991 35.3408 36.785 35.4398C36.7381 35.4807 36.7 35.5307 36.6729 35.5867C36.6459 35.6428 36.6305 35.7037 36.6277 35.7659C36.6249 35.828 36.6347 35.8901 36.6566 35.9484C36.6785 36.0066 36.712 36.0598 36.755 36.1048C37.09 36.4798 37.415 36.8598 37.755 37.2348C37.8065 37.2818 37.8385 37.3462 37.845 37.4155C37.8515 37.4849 37.8319 37.5541 37.79 37.6098C37.3821 38.213 37.1029 38.8938 36.97 39.6098C36.9595 39.6743 36.9268 39.7331 36.8775 39.7761C36.8282 39.819 36.7654 39.8433 36.7 39.8448L35.8 39.9048C35.58 39.9048 35.355 39.9048 35.13 39.9548C35.0177 39.9638 34.9134 40.0164 34.8395 40.1015C34.7656 40.1866 34.7281 40.2973 34.735 40.4098C34.735 40.5798 34.735 40.7498 34.735 40.9098C34.7326 40.9448 34.7326 40.9798 34.735 41.0148C34.7594 41.1104 34.8149 41.1952 34.8927 41.2558C34.9706 41.3165 35.0664 41.3495 35.165 41.3498L36.665 41.4498C36.7035 41.4464 36.7423 41.4507 36.7791 41.4625C36.816 41.4743 36.85 41.4933 36.8794 41.5185C36.9087 41.5436 36.9327 41.5744 36.95 41.609C36.9673 41.6435 36.9775 41.6812 36.98 41.7198C37.0429 42.043 37.1366 42.3595 37.26 42.6648C37.4009 43.0159 37.5785 43.3511 37.79 43.6648C37.8342 43.7188 37.8562 43.7876 37.8516 43.8572C37.8469 43.9269 37.816 43.9921 37.765 44.0398L37.52 44.3198L36.76 45.1898C36.683 45.2707 36.64 45.3781 36.64 45.4898C36.64 45.6015 36.683 45.7089 36.76 45.7898C36.8967 45.9298 37.0317 46.0648 37.165 46.1948C37.2132 46.2416 37.2722 46.2757 37.3368 46.294C37.4014 46.3123 37.4695 46.3143 37.535 46.2998C37.6339 46.2767 37.7252 46.2285 37.8 46.1598C38.17 45.8298 38.545 45.5048 38.92 45.1598C38.9675 45.1102 39.0317 45.0802 39.1002 45.0755C39.1686 45.0709 39.2364 45.0921 39.29 45.1348C39.425 45.2198 39.56 45.3098 39.7 45.3848C40.1884 45.6561 40.7166 45.8485 41.265 45.9548C41.3309 45.9632 41.3915 45.9952 41.4356 46.0449C41.4797 46.0945 41.5044 46.1584 41.505 46.2248C41.505 46.3398 41.505 46.4498 41.505 46.5598C41.535 46.9598 41.56 47.3598 41.59 47.7598C41.5913 47.8717 41.6356 47.9789 41.7138 48.059C41.792 48.1391 41.8981 48.186 42.01 48.1898H42.585C42.6404 48.1875 42.6947 48.1739 42.7445 48.1499C42.7944 48.1258 42.8388 48.0917 42.875 48.0498C42.9193 48.0013 42.9535 47.9445 42.9758 47.8827C42.9981 47.821 43.0081 47.7554 43.005 47.6898C43.04 47.1898 43.07 46.7198 43.105 46.2298C43.1032 46.163 43.1263 46.0979 43.1697 46.0471C43.2131 45.9963 43.2738 45.9634 43.34 45.9548C44.0457 45.8162 44.717 45.5392 45.315 45.1398C45.3703 45.0932 45.4416 45.0702 45.5137 45.0759C45.5857 45.0815 45.6527 45.1152 45.7 45.1698L46.83 46.1698C46.8799 46.2213 46.9398 46.2621 47.006 46.2896C47.0722 46.3172 47.1433 46.3308 47.215 46.3298H47.22ZM53.66 49.9148H30.985C30.985 49.9148 30.985 49.9148 30.985 49.9498V50.9148C30.9873 51.1856 31.0728 51.4492 31.23 51.6698C31.3611 51.866 31.5401 52.0256 31.7501 52.1332C31.9601 52.2408 32.1942 52.293 32.43 52.2848H52.32C52.6771 52.2773 53.0178 52.1331 53.2717 51.8819C53.5257 51.6308 53.6736 51.2918 53.685 50.9348C53.685 50.6098 53.685 50.2848 53.685 49.9348C53.6761 49.9267 53.6659 49.92 53.655 49.9148H53.66ZM44.01 55.4998C43.8369 55.0761 43.7486 54.6225 43.75 54.1648C43.7546 53.7051 43.8462 53.2504 44.02 52.8248H40.625C40.9792 53.6813 40.9792 54.6433 40.625 55.4998H44.01Z" fill="white" stroke="white" stroke-width="0.2" stroke-miterlimit="10"/>
<path d="M33.7701 46.8897H35.6151C35.6657 46.8873 35.716 46.8991 35.7602 46.9238C35.8044 46.9486 35.8407 46.9853 35.8651 47.0297C35.8908 47.071 35.9044 47.1186 35.9044 47.1672C35.9044 47.2158 35.8908 47.2635 35.8651 47.3047C35.841 47.3405 35.8092 47.3703 35.7719 47.3919C35.7347 47.4136 35.693 47.4265 35.6501 47.4297H31.9451C31.9063 47.4334 31.8671 47.4286 31.8304 47.4158C31.7936 47.4029 31.76 47.3822 31.732 47.3551C31.704 47.328 31.6821 47.2952 31.668 47.2589C31.6539 47.2226 31.6477 47.1836 31.6501 47.1447C31.6513 47.0783 31.6779 47.0149 31.7244 46.9675C31.7709 46.9201 31.8337 46.8923 31.9001 46.8897H33.7801H33.7701Z" fill="white" stroke="white" stroke-width="0.2" stroke-miterlimit="10"/>
<path d="M50.8201 46.8899H52.6701C52.7342 46.8863 52.7974 46.9061 52.848 46.9457C52.8986 46.9852 52.9331 47.0418 52.9451 47.1049C52.9582 47.1651 52.9498 47.228 52.9215 47.2828C52.8933 47.3375 52.8468 47.3807 52.7901 47.4049C52.7485 47.4096 52.7066 47.4096 52.6651 47.4049H48.9801C48.9121 47.4106 48.8445 47.3899 48.7914 47.347C48.7384 47.3042 48.7038 47.2425 48.6951 47.1749C48.6852 47.115 48.6962 47.0534 48.7262 47.0007C48.7562 46.9479 48.8035 46.907 48.8601 46.8849C48.9065 46.8776 48.9537 46.8776 49.0001 46.8849L50.8201 46.8899Z" fill="white" stroke="white" stroke-width="0.2" stroke-miterlimit="10"/>
<path d="M33.7701 48.6048H31.9251C31.8808 48.6079 31.8364 48.6 31.7958 48.5819C31.7553 48.5638 31.7199 48.5359 31.6927 48.5008C31.6655 48.4657 31.6473 48.4244 31.6399 48.3806C31.6325 48.3369 31.636 48.2919 31.6501 48.2498C31.6682 48.1973 31.7018 48.1516 31.7464 48.1186C31.791 48.0855 31.8446 48.0668 31.9001 48.0648H35.5851C35.637 48.0604 35.6893 48.0695 35.7366 48.0915C35.784 48.1134 35.8248 48.1473 35.8551 48.1898C35.8802 48.229 35.8948 48.2741 35.8975 48.3206C35.9001 48.3671 35.8906 48.4135 35.87 48.4553C35.8493 48.4971 35.8182 48.5328 35.7797 48.559C35.7412 48.5852 35.6965 48.601 35.6501 48.6048H33.7701Z" fill="white" stroke="white" stroke-width="0.2" stroke-miterlimit="10"/>
<path d="M50.8201 48.6048H48.9851C48.948 48.6082 48.9106 48.604 48.8752 48.5923C48.8399 48.5806 48.8073 48.5617 48.7796 48.5368C48.7519 48.5119 48.7296 48.4816 48.7142 48.4477C48.6988 48.4138 48.6906 48.377 48.6901 48.3398C48.6906 48.3017 48.699 48.2641 48.7146 48.2294C48.7302 48.1946 48.7527 48.1634 48.7808 48.1377C48.8089 48.1119 48.842 48.0922 48.8779 48.0797C48.9139 48.0671 48.9521 48.0621 48.9901 48.0648H52.7201C52.7887 48.0736 52.8511 48.1088 52.8941 48.163C52.9371 48.2172 52.9571 48.286 52.9501 48.3548C52.9449 48.4233 52.9134 48.4872 52.8621 48.5329C52.8108 48.5786 52.7437 48.6026 52.6751 48.5998H50.8201V48.6048Z" fill="white" stroke="white" stroke-width="0.2" stroke-miterlimit="10"/>
<path d="M51.32 46.2498H49.965C49.9213 46.2526 49.8776 46.2447 49.8375 46.2268C49.7975 46.209 49.7625 46.1816 49.7354 46.1472C49.7084 46.1127 49.6901 46.0722 49.6822 46.0291C49.6743 45.986 49.677 45.9416 49.69 45.8998C49.7045 45.8448 49.737 45.7962 49.7823 45.7618C49.8276 45.7273 49.8831 45.709 49.94 45.7098H52.67C52.7145 45.7072 52.7589 45.7157 52.7993 45.7345C52.8398 45.7532 52.8749 45.7817 52.9016 45.8173C52.9284 45.853 52.9459 45.8947 52.9526 45.9387C52.9593 45.9828 52.955 46.0278 52.94 46.0698C52.9205 46.1246 52.8834 46.1713 52.8346 46.203C52.7858 46.2346 52.728 46.2493 52.67 46.2448H51.32V46.2498Z" fill="white" stroke="white" stroke-width="0.2" stroke-miterlimit="10"/>
<path d="M33.275 46.2498H31.915C31.8689 46.2527 31.8227 46.2434 31.7812 46.2229C31.7397 46.2024 31.7043 46.1714 31.6785 46.1329C31.6527 46.0945 31.6374 46.05 31.6342 46.0038C31.631 45.9576 31.6399 45.9114 31.66 45.8698C31.6824 45.8205 31.7193 45.7792 31.7657 45.7515C31.8122 45.7238 31.8661 45.711 31.9201 45.7148H34.635C34.6784 45.7128 34.7215 45.7213 34.7608 45.7396C34.8002 45.7578 34.8346 45.7852 34.861 45.8196C34.8875 45.8539 34.9054 45.8941 34.913 45.9368C34.9207 45.9795 34.9179 46.0234 34.905 46.0648C34.8872 46.1227 34.8504 46.173 34.8005 46.2074C34.7506 46.2419 34.6906 46.2586 34.63 46.2548H33.275V46.2498Z" fill="white" stroke="white" stroke-width="0.2" stroke-miterlimit="10"/>
<path d="M37.6951 40.6548C37.6964 40.0447 37.8183 39.4408 38.0537 38.8779C38.2892 38.3151 38.6335 37.8043 39.0671 37.3749C39.5006 36.9456 40.0147 36.6062 40.5798 36.3762C41.1449 36.1462 41.75 36.0302 42.3601 36.0348C43.5816 36.0506 44.7477 36.5469 45.6059 37.4163C46.464 38.2857 46.9452 39.4582 46.9451 40.6798C46.9372 41.9013 46.4474 43.0703 45.5823 43.9326C44.7171 44.7949 43.5466 45.2809 42.3251 45.2848C41.7169 45.2855 41.1145 45.1661 40.5525 44.9337C39.9904 44.7012 39.4798 44.3602 39.0497 43.9302C38.6196 43.5001 38.2786 42.9894 38.0462 42.4274C37.8137 41.8654 37.6944 41.263 37.6951 40.6548ZM42.3201 36.5748C41.2418 36.5774 40.208 37.0052 39.4432 37.7653C38.6784 38.5254 38.2443 39.5566 38.2351 40.6348C38.2298 41.7187 38.6549 42.7604 39.4171 43.531C40.1793 44.3016 41.2162 44.7382 42.3001 44.7448C43.3771 44.7475 44.4117 44.3253 45.1793 43.5699C45.9469 42.8144 46.3856 41.7867 46.4001 40.7098C46.406 40.1698 46.3049 39.6339 46.1027 39.1331C45.9004 38.6323 45.601 38.1766 45.2217 37.7922C44.8424 37.4077 44.3907 37.1022 43.8926 36.8933C43.3946 36.6843 42.8601 36.5761 42.3201 36.5748Z" fill="white" stroke="white" stroke-width="0.2" stroke-miterlimit="10"/>
<path d="M42.32 51.3649H40.635C40.5928 51.3689 40.5502 51.363 40.5107 51.3475C40.4712 51.3321 40.4359 51.3075 40.4076 51.2759C40.3794 51.2442 40.359 51.2064 40.3481 51.1653C40.3373 51.1243 40.3362 51.0814 40.345 51.0399C40.3543 50.9859 40.3807 50.9363 40.4203 50.8985C40.4599 50.8606 40.5107 50.8366 40.565 50.8299H43.985C44.0312 50.8257 44.0777 50.8321 44.121 50.8485C44.1643 50.865 44.2033 50.8911 44.235 50.9249C44.269 50.9632 44.2909 51.0106 44.2981 51.0613C44.3052 51.112 44.2972 51.1637 44.275 51.2099C44.2559 51.2577 44.2227 51.2985 44.1798 51.3271C44.137 51.3556 44.0865 51.3706 44.035 51.3699H42.32V51.3649Z" fill="white" stroke="white" stroke-width="0.2" stroke-miterlimit="10"/>
<path d="M40.2501 40.2798L40.6251 39.8948L40.9501 39.5698C40.9867 39.5285 41.0355 39.5 41.0895 39.4883C41.1434 39.4766 41.1997 39.4824 41.2501 39.5048C41.3004 39.5237 41.3435 39.5581 41.3732 39.603C41.4028 39.6479 41.4175 39.7011 41.4151 39.7548C41.4151 40.3398 41.4151 40.9248 41.4151 41.5048C41.4172 41.5411 41.4117 41.5773 41.399 41.6113C41.3862 41.6453 41.3665 41.6763 41.3411 41.7022C41.3156 41.7281 41.285 41.7484 41.2513 41.7617C41.2175 41.7751 41.1814 41.7813 41.1451 41.7798C41.1085 41.7799 41.0724 41.7725 41.0388 41.7579C41.0053 41.7434 40.9751 41.722 40.9503 41.6953C40.9254 41.6685 40.9063 41.6369 40.8942 41.6024C40.8821 41.5679 40.8773 41.5313 40.8801 41.4948V40.4248C40.8251 40.4798 40.7751 40.5398 40.7151 40.5948C40.6551 40.6498 40.5551 40.7648 40.4701 40.8448C40.4447 40.8744 40.4133 40.8981 40.3779 40.9144C40.3425 40.9307 40.304 40.9391 40.2651 40.9391C40.2261 40.9391 40.1876 40.9307 40.1523 40.9144C40.1169 40.8981 40.0854 40.8744 40.0601 40.8448C39.9251 40.7098 39.7851 40.5698 39.6301 40.4348V40.5298C39.6301 40.8548 39.6301 41.1848 39.6301 41.5298C39.633 41.577 39.6233 41.6241 39.602 41.6662C39.5806 41.7084 39.5484 41.744 39.5086 41.7695C39.4688 41.795 39.423 41.8094 39.3757 41.8112C39.3285 41.813 39.2817 41.8022 39.2401 41.7798C39.1917 41.7567 39.1515 41.7195 39.1247 41.6731C39.0979 41.6267 39.0859 41.5732 39.0901 41.5198V39.8198C39.0838 39.761 39.0971 39.7017 39.1278 39.6511C39.1585 39.6005 39.205 39.5614 39.2601 39.5398C39.3135 39.5157 39.3734 39.51 39.4304 39.5236C39.4874 39.5372 39.5383 39.5693 39.5751 39.6148L40.2051 40.2448L40.2501 40.2798Z" fill="white"/>
<path d="M44.6551 41.0099V41.5499C44.6564 41.6206 44.63 41.6891 44.5813 41.7405C44.5327 41.792 44.4658 41.8222 44.3951 41.8248C44.3599 41.8262 44.3247 41.8205 44.2917 41.8081C44.2588 41.7957 44.2286 41.7768 44.203 41.7526C44.1774 41.7284 44.1568 41.6993 44.1426 41.6671C44.1284 41.6348 44.1207 41.6001 44.1201 41.5648C44.1176 41.5399 44.1176 41.5148 44.1201 41.4899V39.8049C44.1201 39.5749 44.2201 39.4699 44.4501 39.4749C44.6333 39.4648 44.8169 39.4648 45.0001 39.4749C45.1942 39.4951 45.3729 39.5897 45.4987 39.7389C45.6246 39.888 45.6878 40.0801 45.6751 40.2749C45.6638 40.466 45.5808 40.6457 45.4427 40.7783C45.3045 40.9109 45.1215 40.9864 44.9301 40.9899L44.6551 41.0099ZM44.6551 40.4698C44.7551 40.4698 44.8451 40.4698 44.9351 40.4698C44.9852 40.4621 45.0313 40.4377 45.0658 40.4004C45.1003 40.3632 45.1212 40.3154 45.1251 40.2648C45.1299 40.2123 45.1152 40.1599 45.0839 40.1175C45.0525 40.0751 45.0067 40.0457 44.9551 40.0349C44.8601 40.0349 44.7551 40.0349 44.6551 40.0349V40.4698Z" fill="white"/>
<path d="M42.7751 40.8248L43.1951 39.8248L43.2801 39.6298C43.3096 39.5638 43.364 39.5121 43.4313 39.4859C43.4987 39.4597 43.5737 39.4611 43.6401 39.4898C43.6725 39.5039 43.7019 39.5243 43.7264 39.5499C43.7508 39.5755 43.7699 39.6057 43.7825 39.6388C43.7951 39.6719 43.8009 39.7072 43.7996 39.7425C43.7983 39.7779 43.79 39.8127 43.7751 39.8448L43.0301 41.5848C43.011 41.6378 42.9755 41.6834 42.9287 41.7148C42.8819 41.7463 42.8264 41.7621 42.7701 41.7598C42.7154 41.7599 42.6621 41.7432 42.6173 41.7119C42.5726 41.6806 42.5386 41.6362 42.5201 41.5848L41.7801 39.8598C41.7626 39.8266 41.7522 39.7902 41.7496 39.7528C41.747 39.7154 41.7522 39.6778 41.7649 39.6425C41.7776 39.6073 41.7975 39.575 41.8234 39.5478C41.8492 39.5207 41.8805 39.4992 41.9151 39.4848C41.9501 39.4706 41.9876 39.4637 42.0254 39.4647C42.0632 39.4656 42.1003 39.4744 42.1346 39.4903C42.1688 39.5063 42.1994 39.5291 42.2244 39.5574C42.2495 39.5857 42.2684 39.6188 42.2801 39.6548C42.4301 40.0098 42.5851 40.3648 42.7401 40.7248L42.7751 40.8248Z" fill="white"/>
<defs>
<filter id="filter0_dd_30_7" x="0.5" y="0.299805" width="84" height="88" filterUnits="userSpaceOnUse" color-interpolation-filters="sRGB">
<feFlood flood-opacity="0" result="BackgroundImageFix"/>
<feColorMatrix in="SourceAlpha" type="matrix" values="0 0 0 0 0 0 0 0 0 0 0 0 0 0 0 0 0 0 127 0" result="hardAlpha"/>
<feOffset dy="-2"/>
<feGaussianBlur stdDeviation="1"/>
<feColorMatrix type="matrix" values="0 0 0 0 0 0 0 0 0 0 0 0 0 0 0 0 0 0 0.05 0"/>
<feBlend mode="normal" in2="BackgroundImageFix" result="effect1_dropShadow_30_7"/>
<feColorMatrix in="SourceAlpha" type="matrix" values="0 0 0 0 0 0 0 0 0 0 0 0 0 0 0 0 0 0 127 0" result="hardAlpha"/>
<feOffset dy="2"/>
<feGaussianBlur stdDeviation="1"/>
<feComposite in2="hardAlpha" operator="out"/>
<feColorMatrix type="matrix" values="0 0 0 0 0 0 0 0 0 0 0 0 0 0 0 0 0 0 0.05 0"/>
<feBlend mode="normal" in2="effect1_dropShadow_30_7" result="effect2_dropShadow_30_7"/>
<feBlend mode="normal" in="SourceGraphic" in2="effect2_dropShadow_30_7" result="shape"/>
</filter>
<filter id="filter1_dd_30_7" x="12.5" y="12.2998" width="60" height="64" filterUnits="userSpaceOnUse" color-interpolation-filters="sRGB">
<feFlood flood-opacity="0" result="BackgroundImageFix"/>
<feColorMatrix in="SourceAlpha" type="matrix" values="0 0 0 0 0 0 0 0 0 0 0 0 0 0 0 0 0 0 127 0" result="hardAlpha"/>
<feOffset dy="-2"/>
<feGaussianBlur stdDeviation="1"/>
<feColorMatrix type="matrix" values="0 0 0 0 0 0 0 0 0 0 0 0 0 0 0 0 0 0 0.05 0"/>
<feBlend mode="normal" in2="BackgroundImageFix" result="effect1_dropShadow_30_7"/>
<feColorMatrix in="SourceAlpha" type="matrix" values="0 0 0 0 0 0 0 0 0 0 0 0 0 0 0 0 0 0 127 0" result="hardAlpha"/>
<feOffset dy="2"/>
<feGaussianBlur stdDeviation="1"/>
<feComposite in2="hardAlpha" operator="out"/>
<feColorMatrix type="matrix" values="0 0 0 0 0 0 0 0 0 0 0 0 0 0 0 0 0 0 0.05 0"/>
<feBlend mode="normal" in2="effect1_dropShadow_30_7" result="effect2_dropShadow_30_7"/>
<feBlend mode="normal" in="SourceGraphic" in2="effect2_dropShadow_30_7" result="shape"/>
</filter>
<linearGradient id="paint0_linear_30_7" x1="42.5" y1="16.2998" x2="42.5" y2="72.2998" gradientUnits="userSpaceOnUse">
<stop stop-color="#FB3506"/>
<stop offset="1" stop-color="#FE6F56"/>
</linearGradient>
</defs>
</svg>
