<svg width="85" height="89" viewBox="0 0 85 89" fill="none" xmlns="http://www.w3.org/2000/svg">
<g filter="url(#filter0_dd_30_394)">
<circle cx="42.5" cy="44.2998" r="40" fill="white"/>
</g>
<g filter="url(#filter1_dd_30_394)">
<circle cx="42.5" cy="44.2998" r="28" fill="url(#paint0_linear_30_394)"/>
</g>
<g clip-path="url(#clip0_30_394)">
<path d="M43.9209 47.8828C46.2269 47.8828 48.1162 49.4629 48.1162 51.4248V54.4814C48.1161 54.6055 48.067 54.7114 47.9795 54.7852C47.8927 54.8582 47.7715 54.8965 47.6318 54.8965C47.3533 54.8964 47.1526 54.6957 47.1592 54.4795V51.4248C47.1592 49.9321 45.7212 48.7091 43.9267 48.709H41.1221C39.3276 48.7091 37.8896 49.932 37.8896 51.4248V54.4814C37.8895 54.6055 37.8404 54.7114 37.7529 54.7852C37.6661 54.8582 37.5448 54.8965 37.4053 54.8965C37.2659 54.8964 37.1453 54.858 37.0586 54.7852C36.9711 54.7114 36.922 54.6055 36.9219 54.4814V51.4248C36.9219 49.4629 38.8112 47.8828 41.1172 47.8828H43.9209Z" fill="white" stroke="white" stroke-width="0.1"/>
<path d="M42.5002 41.5594C43.9804 41.5596 45.2033 42.7439 45.2033 44.2626C45.2032 45.7432 43.9808 46.9656 42.5002 46.9657C41.0195 46.9657 39.7972 45.7432 39.7971 44.2626C39.7971 42.7818 41.0195 41.5594 42.5002 41.5594ZM42.5002 42.3856C41.4731 42.3856 40.6232 43.2355 40.6232 44.2626C40.6234 45.2896 41.4732 46.1385 42.5002 46.1385C43.5271 46.1384 44.3761 45.2895 44.3762 44.2626C44.3762 43.2356 43.5272 42.3857 42.5002 42.3856Z" fill="white" stroke="white" stroke-width="0.1"/>
<path d="M42.5002 53.2748C42.5219 53.2748 42.5332 53.2826 42.5363 53.2855C42.5377 53.2869 42.5382 53.2888 42.5393 53.2914C42.5403 53.2939 42.5441 53.302 42.5441 53.3187L42.5432 53.3197C42.5429 53.3208 42.5424 53.3229 42.5412 53.3256C42.5387 53.3312 42.5347 53.3389 42.5275 53.3461C42.5204 53.3532 42.5127 53.3573 42.507 53.3597C42.5044 53.3609 42.5023 53.3615 42.5012 53.3617L42.5002 53.3627H42.4992L42.4982 53.3617C42.4971 53.3614 42.4956 53.3607 42.4934 53.3597C42.4878 53.3573 42.48 53.3532 42.4729 53.3461C42.4657 53.3389 42.4607 53.3312 42.4582 53.3256C42.4571 53.323 42.4565 53.3208 42.4563 53.3197V53.3168C42.4565 53.3157 42.4573 53.3141 42.4582 53.3119C42.4607 53.3063 42.4657 53.2986 42.4729 53.2914C42.4801 53.2842 42.4877 53.2792 42.4934 53.2767C42.4956 53.2758 42.4972 53.275 42.4982 53.2748H42.5002Z" fill="white" stroke="white"/>
<path d="M44.6556 51.2185C44.8729 51.2186 45.054 51.3103 45.2044 51.4607C45.3282 51.5847 45.3912 51.7677 45.3607 51.9548L45.3616 51.9558L45.056 54.7468H46.4525C46.6205 54.7469 46.7845 54.8803 46.7845 55.0828C46.7845 55.1802 46.7524 55.2652 46.6917 55.3259C46.631 55.3866 46.5459 55.4187 46.4485 55.4187H38.5374C38.44 55.4187 38.3549 55.3866 38.2943 55.3259C38.2336 55.2652 38.2015 55.1802 38.2015 55.0828C38.2015 54.9853 38.2336 54.9003 38.2943 54.8396C38.3549 54.7789 38.44 54.7468 38.5374 54.7468H39.9339L39.6282 51.9558V51.9548C39.5973 51.769 39.6637 51.6129 39.7816 51.4646C39.9064 51.3075 40.124 51.2186 40.3343 51.2185H44.6556ZM40.3343 51.8572C40.305 51.8572 40.2875 51.8677 40.2776 51.8757C40.2759 51.8772 40.2741 51.8783 40.2728 51.8796L40.6068 54.7468H44.39L44.723 51.8855C44.7157 51.8785 44.7103 51.8723 44.7034 51.8679C44.6941 51.8621 44.6822 51.8572 44.6624 51.8572H40.3343Z" fill="white" stroke="white" stroke-width="0.1"/>
<path d="M49.0438 41.5717C47.4781 41.5717 46.2078 42.8467 46.2078 44.4076V46.8076C46.2078 47.0279 46.3531 47.1732 46.5734 47.1732C46.7938 47.1732 46.9391 47.0279 46.9391 46.8076V44.4076C46.9391 43.2451 47.886 42.2982 49.0484 42.2982H50.9047C52.0672 42.2982 53.0141 43.2451 53.0141 44.4076V46.8076C53.0141 47.0279 53.1594 47.1732 53.3797 47.1732C53.6 47.1732 53.7453 47.0279 53.7453 46.8076V44.4076C53.7453 42.842 52.4703 41.5717 50.9094 41.5717H49.0438Z" fill="white"/>
<path d="M49.9906 40.953C51.1906 40.953 52.1703 39.9733 52.1703 38.7733C52.1703 37.5733 51.1906 36.5936 49.9906 36.5936C48.7906 36.5936 47.8109 37.5733 47.8109 38.7733C47.8109 39.9733 48.7906 40.953 49.9906 40.953ZM49.9906 37.3202C50.7922 37.3202 51.4438 37.9764 51.4438 38.7733C51.4438 39.5702 50.7875 40.2264 49.9906 40.2264C49.1938 40.2264 48.5375 39.5702 48.5375 38.7733C48.5375 37.9764 49.1891 37.3202 49.9906 37.3202Z" fill="white"/>
<path d="M49.9906 46.0436V45.942M49.9906 46.0436H50.0922C50.0922 46.008 50.0771 45.9836 50.0639 45.9703C50.0506 45.9571 50.0262 45.942 49.9906 45.942M49.9906 46.0436V45.942M49.9906 46.0436H49.8891C49.8891 46.008 49.9042 45.9836 49.9174 45.9703C49.9306 45.9571 49.9551 45.942 49.9906 45.942M50.0639 46.1158C50.048 46.1318 50.0219 46.1451 49.9906 46.1451C49.9749 46.1451 49.9544 46.1417 49.934 46.1324C49.924 46.1279 49.9171 46.1207 49.9106 46.1158L50.0795 46.0905C50.0746 46.1001 50.0703 46.1093 50.0639 46.1158Z" fill="white" stroke="white"/>
<mask id="path-10-inside-1_30_394" fill="white">
<path d="M53.9562 47.3185H52.4281L52.7187 44.7732C52.7562 44.5904 52.6812 44.4076 52.5359 44.2623C52.3906 44.117 52.2078 44.0092 51.9922 44.0092H47.9562C47.7359 44.0092 47.5578 44.0842 47.4125 44.2623C47.3047 44.4076 47.2297 44.5904 47.2297 44.7732L47.5203 47.3185H45.9922C45.7719 47.3185 45.6266 47.4638 45.6266 47.6842C45.6266 47.9045 45.7719 48.0498 45.9922 48.0498H53.9187C54.1391 48.0498 54.2844 47.9045 54.2844 47.6842C54.2797 47.4638 54.1719 47.3185 53.9562 47.3185ZM48.2797 47.3185L47.9891 44.7357H51.9875L51.6969 47.3185H48.2797Z"/>
</mask>
<path d="M53.9562 47.3185H52.4281L52.7187 44.7732C52.7562 44.5904 52.6812 44.4076 52.5359 44.2623C52.3906 44.117 52.2078 44.0092 51.9922 44.0092H47.9562C47.7359 44.0092 47.5578 44.0842 47.4125 44.2623C47.3047 44.4076 47.2297 44.5904 47.2297 44.7732L47.5203 47.3185H45.9922C45.7719 47.3185 45.6266 47.4638 45.6266 47.6842C45.6266 47.9045 45.7719 48.0498 45.9922 48.0498H53.9187C54.1391 48.0498 54.2844 47.9045 54.2844 47.6842C54.2797 47.4638 54.1719 47.3185 53.9562 47.3185ZM48.2797 47.3185L47.9891 44.7357H51.9875L51.6969 47.3185H48.2797Z" fill="white"/>
<path d="M52.4281 47.3185L51.4346 47.2051L51.3074 48.3185H52.4281V47.3185ZM52.7187 44.7732L51.7391 44.5723L51.7302 44.6157L51.7252 44.6598L52.7187 44.7732ZM47.4125 44.2623L46.6376 43.6302L46.6231 43.648L46.6094 43.6664L47.4125 44.2623ZM47.2297 44.7732H46.2297V44.8301L46.2361 44.8867L47.2297 44.7732ZM47.5203 47.3185V48.3185H48.641L48.5139 47.2051L47.5203 47.3185ZM54.2844 47.6842H55.2844V47.6735L55.2841 47.6629L54.2844 47.6842ZM48.2797 47.3185L47.286 47.4303L47.3859 48.3185H48.2797V47.3185ZM47.9891 44.7357V43.7357H46.8702L46.9953 44.8475L47.9891 44.7357ZM51.9875 44.7357L52.9812 44.8475L53.1063 43.7357H51.9875V44.7357ZM51.6969 47.3185V48.3185H52.5907L52.6906 47.4303L51.6969 47.3185ZM53.9562 47.3185V46.3185H52.4281V47.3185V48.3185H53.9562V47.3185ZM52.4281 47.3185L53.4217 47.432L53.7123 44.8867L52.7187 44.7732L51.7252 44.6598L51.4346 47.2051L52.4281 47.3185ZM52.7187 44.7732L53.6983 44.9742C53.8218 44.3725 53.5531 43.8653 53.243 43.5552L52.5359 44.2623L51.8288 44.9694C51.8094 44.9499 51.6907 44.8083 51.7391 44.5723L52.7187 44.7732ZM52.5359 44.2623L53.243 43.5552C52.9857 43.2978 52.5635 43.0092 51.9922 43.0092V44.0092V45.0092C51.9278 45.0092 51.876 44.992 51.8455 44.9768C51.8191 44.9637 51.815 44.9555 51.8288 44.9694L52.5359 44.2623ZM51.9922 44.0092V43.0092H47.9562V44.0092V45.0092H51.9922V44.0092ZM47.9562 44.0092V43.0092C47.4605 43.0092 46.9881 43.2006 46.6376 43.6302L47.4125 44.2623L48.1874 44.8944C48.1737 44.9111 48.1351 44.9497 48.07 44.9793C48.0074 45.0078 47.9613 45.0092 47.9562 45.0092V44.0092ZM47.4125 44.2623L46.6094 43.6664C46.4061 43.9405 46.2297 44.3272 46.2297 44.7732H47.2297H48.2297C48.2297 44.8176 48.2209 44.8443 48.218 44.852C48.2151 44.8599 48.2139 44.8605 48.2156 44.8581L47.4125 44.2623ZM47.2297 44.7732L46.2361 44.8867L46.5268 47.432L47.5203 47.3185L48.5139 47.2051L48.2232 44.6598L47.2297 44.7732ZM47.5203 47.3185V46.3185H45.9922V47.3185V48.3185H47.5203V47.3185ZM45.9922 47.3185V46.3185C45.6575 46.3185 45.298 46.4333 45.0196 46.7116C44.7413 46.9899 44.6266 47.3495 44.6266 47.6842H45.6266H46.6266C46.6266 47.7985 46.5845 47.9752 46.4339 48.1258C46.2833 48.2764 46.1066 48.3185 45.9922 48.3185V47.3185ZM45.6266 47.6842H44.6266C44.6266 48.0189 44.7413 48.3784 45.0196 48.6567C45.298 48.935 45.6575 49.0498 45.9922 49.0498V48.0498V47.0498C46.1066 47.0498 46.2833 47.0919 46.4339 47.2425C46.5845 47.3931 46.6266 47.5698 46.6266 47.6842H45.6266ZM45.9922 48.0498V49.0498H53.9187V48.0498V47.0498H45.9922V48.0498ZM53.9187 48.0498V49.0498C54.2534 49.0498 54.613 48.935 54.8913 48.6567C55.1696 48.3784 55.2844 48.0189 55.2844 47.6842H54.2844H53.2844C53.2844 47.5698 53.3265 47.3931 53.4771 47.2425C53.6277 47.0919 53.8044 47.0498 53.9187 47.0498V48.0498ZM54.2844 47.6842L55.2841 47.6629C55.2787 47.4091 55.2124 47.0653 54.9601 46.7697C54.6849 46.4471 54.3059 46.3185 53.9562 46.3185V47.3185V48.3185C53.8222 48.3185 53.6049 48.2626 53.4387 48.0678C53.2954 47.8999 53.2853 47.7389 53.2846 47.7054L54.2844 47.6842ZM48.2797 47.3185L49.2734 47.2067L48.9828 44.6239L47.9891 44.7357L46.9953 44.8475L47.286 47.4303L48.2797 47.3185ZM47.9891 44.7357V45.7357H51.9875V44.7357V43.7357H47.9891V44.7357ZM51.9875 44.7357L50.9938 44.6239L50.7031 47.2067L51.6969 47.3185L52.6906 47.4303L52.9812 44.8475L51.9875 44.7357ZM51.6969 47.3185V46.3185H48.2797V47.3185V48.3185H51.6969V47.3185Z" fill="white" mask="url(#path-10-inside-1_30_394)"/>
<path d="M31.625 47.1732C31.8453 47.1732 31.9906 47.0279 31.9906 46.8076V44.4076C31.9906 43.2451 32.9375 42.2982 34.1 42.2982H35.9563C37.1188 42.2982 38.0656 43.2451 38.0656 44.4076V46.8076C38.0656 47.0279 38.2109 47.1732 38.4313 47.1732C38.6516 47.1732 38.7969 47.0279 38.7969 46.8076V44.4076C38.7969 42.842 37.5219 41.5717 35.9609 41.5717H34.1C32.5344 41.5717 31.2641 42.8467 31.2641 44.4076V46.8076C31.2641 47.0279 31.4094 47.1732 31.625 47.1732Z" fill="white"/>
<path d="M35.0094 40.953C36.2094 40.953 37.1891 39.9733 37.1891 38.7733C37.1891 37.5733 36.2094 36.5936 35.0094 36.5936C33.8094 36.5936 32.8297 37.5733 32.8297 38.7733C32.8297 39.9733 33.8094 40.953 35.0094 40.953ZM35.0094 37.3202C35.8109 37.3202 36.4625 37.9764 36.4625 38.7733C36.4625 39.5702 35.8063 40.2264 35.0094 40.2264C34.2125 40.2264 33.5563 39.5702 33.5563 38.7733C33.5563 37.9764 34.2078 37.3202 35.0094 37.3202Z" fill="white"/>
<path d="M35.1109 46.0436C35.1109 46.0753 35.098 46.1004 35.0826 46.1158C35.0667 46.1318 35.0407 46.1451 35.0094 46.1451C34.9738 46.1451 34.9494 46.1301 34.9361 46.1168C34.9229 46.1036 34.9078 46.0791 34.9078 46.0436C34.9078 46.008 34.9229 45.9836 34.9361 45.9703C34.9494 45.9571 34.9738 45.942 35.0094 45.942C35.0449 45.942 35.0694 45.9571 35.0826 45.9703C35.0959 45.9836 35.1109 46.008 35.1109 46.0436Z" fill="white" stroke="white"/>
<mask id="path-15-inside-2_30_394" fill="white">
<path d="M39.3359 47.6795C39.3359 47.4592 39.1906 47.3139 38.9703 47.3139H37.4422L37.7328 44.7686C37.7703 44.5858 37.6953 44.403 37.55 44.2576C37.4047 44.1123 37.2219 44.0045 37.0063 44.0045H33.0078C32.7875 44.0045 32.6094 44.0795 32.4641 44.2576C32.3563 44.403 32.2813 44.5858 32.2813 44.7686L32.5719 47.3139H31.0438C30.8234 47.3139 30.6781 47.4592 30.6781 47.6795C30.6781 47.8998 30.8234 48.0451 31.0438 48.0451H38.9703C39.1906 48.0451 39.3359 47.8623 39.3359 47.6795ZM33.2984 47.3186L33.0078 44.7358H37.0063L36.7156 47.3186H33.2984Z"/>
</mask>
<path d="M39.3359 47.6795C39.3359 47.4592 39.1906 47.3139 38.9703 47.3139H37.4422L37.7328 44.7686C37.7703 44.5858 37.6953 44.403 37.55 44.2576C37.4047 44.1123 37.2219 44.0045 37.0063 44.0045H33.0078C32.7875 44.0045 32.6094 44.0795 32.4641 44.2576C32.3563 44.403 32.2813 44.5858 32.2813 44.7686L32.5719 47.3139H31.0438C30.8234 47.3139 30.6781 47.4592 30.6781 47.6795C30.6781 47.8998 30.8234 48.0451 31.0438 48.0451H38.9703C39.1906 48.0451 39.3359 47.8623 39.3359 47.6795ZM33.2984 47.3186L33.0078 44.7358H37.0063L36.7156 47.3186H33.2984Z" fill="white"/>
<path d="M37.4422 47.3139L36.4486 47.2004L36.3215 48.3139H37.4422V47.3139ZM37.7328 44.7686L36.7532 44.5676L36.7443 44.6111L36.7393 44.6551L37.7328 44.7686ZM32.4641 44.2576L31.6892 43.6255L31.6747 43.6433L31.661 43.6618L32.4641 44.2576ZM32.2813 44.7686H31.2813V44.8255L31.2877 44.882L32.2813 44.7686ZM32.5719 47.3139V48.3139H33.6926L33.5654 47.2004L32.5719 47.3139ZM38.9703 48.0451L38.9703 49.0451L38.9703 48.0451ZM33.2984 47.3186L32.3047 47.4304L32.4047 48.3186H33.2984V47.3186ZM33.0078 44.7358V43.7358H31.889L32.0141 44.8476L33.0078 44.7358ZM37.0063 44.7358L38 44.8476L38.1251 43.7358H37.0063V44.7358ZM36.7156 47.3186V48.3186H37.6094L37.7094 47.4304L36.7156 47.3186ZM39.3359 47.6795H40.3359C40.3359 47.3448 40.2212 46.9853 39.9429 46.707C39.6645 46.4287 39.305 46.3139 38.9703 46.3139V47.3139V48.3139C38.8559 48.3139 38.6792 48.2718 38.5286 48.1212C38.378 47.9706 38.3359 47.7939 38.3359 47.6795H39.3359ZM38.9703 47.3139V46.3139H37.4422V47.3139V48.3139H38.9703V47.3139ZM37.4422 47.3139L38.4357 47.4273L38.7264 44.882L37.7328 44.7686L36.7393 44.6551L36.4486 47.2004L37.4422 47.3139ZM37.7328 44.7686L38.7124 44.9695C38.8358 44.3679 38.5672 43.8606 38.2571 43.5505L37.55 44.2576L36.8429 44.9647C36.8234 44.9453 36.7048 44.8036 36.7532 44.5676L37.7328 44.7686ZM37.55 44.2576L38.2571 43.5505C37.9997 43.2932 37.5775 43.0045 37.0063 43.0045V44.0045V45.0045C36.9419 45.0045 36.8901 44.9873 36.8596 44.9722C36.8331 44.959 36.829 44.9509 36.8429 44.9647L37.55 44.2576ZM37.0063 44.0045V43.0045H33.0078V44.0045V45.0045H37.0063V44.0045ZM33.0078 44.0045V43.0045C32.512 43.0045 32.0397 43.1959 31.6892 43.6255L32.4641 44.2576L33.2389 44.8898C33.2253 44.9065 33.1866 44.9451 33.1216 44.9746C33.059 45.0031 33.0129 45.0045 33.0078 45.0045V44.0045ZM32.4641 44.2576L31.661 43.6618C31.4576 43.9358 31.2813 44.3226 31.2813 44.7686H32.2813H33.2813C33.2813 44.813 33.2725 44.8397 33.2696 44.8474C33.2667 44.8552 33.2654 44.8558 33.2672 44.8535L32.4641 44.2576ZM32.2813 44.7686L31.2877 44.882L31.5783 47.4273L32.5719 47.3139L33.5654 47.2004L33.2748 44.6551L32.2813 44.7686ZM32.5719 47.3139V46.3139H31.0438V47.3139V48.3139H32.5719V47.3139ZM31.0438 47.3139V46.3139C30.7091 46.3139 30.3495 46.4287 30.0712 46.707C29.7929 46.9853 29.6781 47.3448 29.6781 47.6795H30.6781H31.6781C31.6781 47.7939 31.636 47.9706 31.4854 48.1212C31.3348 48.2718 31.1581 48.3139 31.0438 48.3139V47.3139ZM30.6781 47.6795H29.6781C29.6781 48.0142 29.7929 48.3737 30.0712 48.6521C30.3495 48.9304 30.7091 49.0451 31.0438 49.0451V48.0451V47.0451C31.1581 47.0451 31.3348 47.0872 31.4854 47.2378C31.636 47.3884 31.6781 47.5651 31.6781 47.6795H30.6781ZM31.0438 48.0451V49.0451H38.9703V48.0451V47.0451H31.0438V48.0451ZM38.9703 48.0451L38.9703 49.0451C39.8084 49.0451 40.3359 48.3467 40.3359 47.6795H39.3359H38.3359C38.3359 47.3779 38.5728 47.0451 38.9703 47.0451L38.9703 48.0451ZM33.2984 47.3186L34.2922 47.2068L34.0015 44.6239L33.0078 44.7358L32.0141 44.8476L32.3047 47.4304L33.2984 47.3186ZM33.0078 44.7358V45.7358H37.0063V44.7358V43.7358H33.0078V44.7358ZM37.0063 44.7358L36.0125 44.6239L35.7219 47.2068L36.7156 47.3186L37.7094 47.4304L38 44.8476L37.0063 44.7358ZM36.7156 47.3186V46.3186H33.2984V47.3186V48.3186H36.7156V47.3186Z" fill="white" mask="url(#path-15-inside-2_30_394)"/>
<path d="M42.4996 32.611C43.2903 32.611 43.9701 33.2508 43.9703 34.0807C43.9703 34.7469 43.5001 35.2992 42.9156 35.4635V40.0065C42.9155 40.1277 42.8749 40.2327 42.8004 40.3073C42.7258 40.3816 42.6208 40.4215 42.4996 40.4215C42.3784 40.4214 42.2733 40.3818 42.1988 40.3073C42.1243 40.2327 42.0847 40.1277 42.0846 40.0065V35.4615C41.5031 35.2645 41.0299 34.7499 41.0299 34.0807C41.0301 33.251 41.7091 32.6112 42.4996 32.611ZM42.4996 33.442C42.1603 33.4422 41.8612 33.7117 41.8609 34.0807C41.8609 34.4498 42.1602 34.7201 42.4996 34.7203C42.8689 34.7203 43.1393 34.4203 43.1393 34.0807C43.1391 33.7116 42.8391 33.442 42.4996 33.442Z" fill="white" stroke="white" stroke-width="0.1"/>
<path d="M38.6801 32.9437C39.5098 32.9439 40.1496 33.6229 40.1498 34.4135C40.1498 34.7302 40.0486 35.017 39.8764 35.2416L40.9359 36.2289L40.9369 36.2299C41.0153 36.3083 41.059 36.3962 41.059 36.5189V40.0062C41.0589 40.1275 41.0193 40.2325 40.9447 40.307C40.8702 40.3816 40.7653 40.4212 40.644 40.4213C40.5227 40.4213 40.4177 40.3815 40.3432 40.307C40.2686 40.2325 40.228 40.1275 40.2279 40.0062V36.7181L39.2123 35.7738C39.0603 35.8388 38.8551 35.8743 38.6801 35.8744C37.8558 35.8744 37.2145 35.2386 37.2143 34.4095C37.2143 33.5804 37.8509 32.9437 38.6801 32.9437ZM38.6801 33.8031C38.345 33.8031 38.0405 34.0728 38.0404 34.4418C38.0404 34.8111 38.3405 35.0814 38.6801 35.0814C39.0492 35.0812 39.3188 34.7812 39.3188 34.4418C39.3187 34.0727 39.0194 33.8033 38.6801 33.8031Z" fill="white" stroke="white" stroke-width="0.1"/>
<path d="M46.3201 32.9391C47.15 32.9391 47.7906 33.6182 47.7908 34.4088C47.7908 35.2388 47.1109 35.8795 46.3201 35.8795C46.1082 35.8795 45.8979 35.8426 45.7127 35.7438L44.7723 36.7203V40.0065C44.7722 40.1277 44.7316 40.2327 44.657 40.3073C44.5825 40.3817 44.4775 40.4215 44.3563 40.4215C44.2345 40.4215 44.1305 40.3808 44.0526 40.3082C43.9751 40.236 43.9258 40.135 43.908 40.0182L43.907 40.0104H43.908V36.5182C43.9081 36.4593 43.9166 36.4078 43.9373 36.36C43.9476 36.3362 43.961 36.3139 43.9764 36.2926L44.0301 36.2301L45.0574 35.1656C44.9209 34.9449 44.8504 34.6936 44.8504 34.4088C44.8506 33.5799 45.4912 32.9392 46.3201 32.9391ZM46.3201 33.8033C45.9843 33.8034 45.7125 34.0698 45.6815 34.4459C45.6833 34.8147 45.9507 35.0806 46.3201 35.0807C46.6894 35.0807 46.9598 34.7816 46.9598 34.442C46.9598 34.0727 46.6597 33.8033 46.3201 33.8033Z" fill="white" stroke="white" stroke-width="0.1"/>
</g>
<defs>
<filter id="filter0_dd_30_394" x="0.5" y="0.299805" width="84" height="88" filterUnits="userSpaceOnUse" color-interpolation-filters="sRGB">
<feFlood flood-opacity="0" result="BackgroundImageFix"/>
<feColorMatrix in="SourceAlpha" type="matrix" values="0 0 0 0 0 0 0 0 0 0 0 0 0 0 0 0 0 0 127 0" result="hardAlpha"/>
<feOffset dy="-2"/>
<feGaussianBlur stdDeviation="1"/>
<feColorMatrix type="matrix" values="0 0 0 0 0 0 0 0 0 0 0 0 0 0 0 0 0 0 0.05 0"/>
<feBlend mode="normal" in2="BackgroundImageFix" result="effect1_dropShadow_30_394"/>
<feColorMatrix in="SourceAlpha" type="matrix" values="0 0 0 0 0 0 0 0 0 0 0 0 0 0 0 0 0 0 127 0" result="hardAlpha"/>
<feOffset dy="2"/>
<feGaussianBlur stdDeviation="1"/>
<feComposite in2="hardAlpha" operator="out"/>
<feColorMatrix type="matrix" values="0 0 0 0 0 0 0 0 0 0 0 0 0 0 0 0 0 0 0.05 0"/>
<feBlend mode="normal" in2="effect1_dropShadow_30_394" result="effect2_dropShadow_30_394"/>
<feBlend mode="normal" in="SourceGraphic" in2="effect2_dropShadow_30_394" result="shape"/>
</filter>
<filter id="filter1_dd_30_394" x="12.5" y="12.2998" width="60" height="64" filterUnits="userSpaceOnUse" color-interpolation-filters="sRGB">
<feFlood flood-opacity="0" result="BackgroundImageFix"/>
<feColorMatrix in="SourceAlpha" type="matrix" values="0 0 0 0 0 0 0 0 0 0 0 0 0 0 0 0 0 0 127 0" result="hardAlpha"/>
<feOffset dy="-2"/>
<feGaussianBlur stdDeviation="1"/>
<feColorMatrix type="matrix" values="0 0 0 0 0 0 0 0 0 0 0 0 0 0 0 0 0 0 0.05 0"/>
<feBlend mode="normal" in2="BackgroundImageFix" result="effect1_dropShadow_30_394"/>
<feColorMatrix in="SourceAlpha" type="matrix" values="0 0 0 0 0 0 0 0 0 0 0 0 0 0 0 0 0 0 127 0" result="hardAlpha"/>
<feOffset dy="2"/>
<feGaussianBlur stdDeviation="1"/>
<feComposite in2="hardAlpha" operator="out"/>
<feColorMatrix type="matrix" values="0 0 0 0 0 0 0 0 0 0 0 0 0 0 0 0 0 0 0.05 0"/>
<feBlend mode="normal" in2="effect1_dropShadow_30_394" result="effect2_dropShadow_30_394"/>
<feBlend mode="normal" in="SourceGraphic" in2="effect2_dropShadow_30_394" result="shape"/>
</filter>
<linearGradient id="paint0_linear_30_394" x1="42.5" y1="16.2998" x2="42.5" y2="72.2998" gradientUnits="userSpaceOnUse">
<stop stop-color="#8B04FE"/>
<stop offset="1" stop-color="#530298"/>
</linearGradient>
<clipPath id="clip0_30_394">
<rect width="24" height="24" fill="white" transform="translate(30.5 32.2998)"/>
</clipPath>
</defs>
</svg>
