<svg id="Layer_1" data-name="Layer 1" xmlns="http://www.w3.org/2000/svg" viewBox="0 0 805.66 1024"><defs><style>.cls-1{fill:#fff;}</style></defs><path class="cls-1" d="M490.5,326.53h22.41A73.47,73.47,0,0,1,586.39,400v.74c0,47.16,0,47.16,46.36,47.16,31.11,0,62.23-.68,93.3.33,14.86.48,19.48-4.07,19.32-19.1-.38-34.38-.46-92.24-.44-140.75a85,85,0,0,1,169.9,0V733.06a84.78,84.78,0,0,1-169.56,0V595.69a23,23,0,0,0-23-23c-21.53,0-42.2-.07-62.87.07-18.57.13-37.15,1.52-55.68.89-13.51-.44-17.83,4.69-17.58,17.76q.15,7.27.22,14.57c.5,47-37.66,85.32-84.68,85.32A84.68,84.68,0,0,1,417,606.64V400a73.46,73.46,0,0,1,73.47-73.46" transform="translate(-109.17)"/><path class="cls-1" d="M585.76,875.24v64.89a83.87,83.87,0,0,1-167.74,0V875.24a83.87,83.87,0,0,1,167.74,0" transform="translate(-109.17)"/><path class="cls-1" d="M585.18,83.57v63a83.57,83.57,0,1,1-167.14,0v-63a83.57,83.57,0,1,1,167.14,0" transform="translate(-109.17)"/><path class="cls-1" d="M279,283.32V732.88a84.92,84.92,0,0,1-169.83,0V283.32a84.92,84.92,0,1,1,169.83,0" transform="translate(-109.17)"/></svg>