<svg width="34" height="26" viewBox="0 0 34 26" fill="none" xmlns="http://www.w3.org/2000/svg">
<path fill-rule="evenodd" clip-rule="evenodd" d="M4.65238 0.206299H10.7098C13.0418 0.206299 14.9484 2.11298 14.9484 4.44488C14.9484 13.1662 17.1788 22.7462 6.48773 25.4814C1.64285 26.7187 0.380874 21.3855 5.53302 21.0179C8.67423 20.7929 9.28876 18.7628 9.38478 15.6956H4.52618C2.19427 15.6929 0.287598 13.7862 0.287598 11.4571V4.57108C0.287598 2.17059 2.25189 0.206299 4.65238 0.206299ZM23.5106 0.206299H29.5681C31.9 0.206299 33.8067 2.11298 33.8067 4.44488C33.8067 13.1662 36.0371 22.7462 25.346 25.4814C20.5039 26.7187 19.2419 21.3855 24.3913 21.0179C27.5325 20.7929 28.147 18.7628 28.243 15.6956H23.3817C21.0498 15.6956 19.1431 13.789 19.1431 11.4571V4.57108C19.1459 2.17059 21.1102 0.206299 23.5106 0.206299Z" fill="#0C111D"/>
</svg>
