<svg width="270" height="279" viewBox="0 0 270 279" fill="none" xmlns="http://www.w3.org/2000/svg">
<path d="M135 278.42C209.197 278.42 269.346 218.272 269.346 144.074C269.346 69.877 209.197 9.72821 135 9.72821C60.8026 9.72821 0.653809 69.877 0.653809 144.074C0.653809 218.272 60.8026 278.42 135 278.42Z" fill="white"/>
<path d="M44.8603 22.6129C44.8603 22.6129 40.7993 25.2613 42.3884 30.5583C43.9775 35.6786 47.1557 37.974 42.0353 40.2693C36.915 42.5646 33.3837 52.6288 39.9166 56.5132C46.626 60.3977 57.0433 57.9257 58.809 49.9803C60.5746 42.0349 51.2167 22.6129 51.0401 22.4363C50.8635 22.2598 44.8603 22.6129 44.8603 22.6129Z" fill="#0D080A"/>
<path d="M45.9202 25.9676C45.9202 27.3801 47.1561 28.616 48.5686 28.616C49.9811 28.616 51.2171 27.3801 51.2171 25.9676C51.2171 24.555 49.9811 23.3191 48.5686 23.3191C46.9796 23.3191 45.9202 24.3785 45.9202 25.9676Z" fill="#C44F35"/>
<path d="M65.5184 25.9675C65.5184 25.9675 66.9308 31.7941 72.7575 32.677C86.8826 34.4426 96.7703 46.2724 94.1218 61.2804C91.2968 76.2884 75.5825 82.6447 79.4669 90.5901C83.1747 98.5355 85.2935 115.309 71.8746 117.604C58.4557 119.723 47.8619 113.72 47.3323 95.5338C46.626 77.3477 56.5135 24.3784 56.5135 24.3784L65.5184 25.9675Z" fill="#0D080A"/>
<path d="M13.4315 83.8808C15.9035 87.0589 20.4941 87.7652 23.6723 85.2933L43.624 70.1088C46.8022 67.6369 47.5084 63.0462 45.0365 59.8681C42.5646 56.6899 37.9739 55.9836 34.7958 58.4555L14.844 73.6401C11.6659 76.112 11.1362 80.7026 13.4315 83.8808Z" fill="#090D0F"/>
<path d="M25.085 75.0526L10.7834 56.3368L6.72241 59.5149L12.3724 81.2323C13.2552 84.7636 16.61 87.0589 20.1413 86.7058C25.7913 86.1761 28.4398 79.6432 25.085 75.0526Z" fill="#090D0F"/>
<path d="M38.68 97.476H65.871L69.4023 61.81C69.7554 58.4553 67.1069 55.4537 63.7522 55.4537H42.5645C33.03 55.4537 26.3205 64.9882 29.8518 73.993L38.68 97.476Z" fill="#161F26"/>
<path d="M66.5776 95.3572C70.6386 95.3572 73.9933 92.0025 73.9933 87.9415V62.8694C73.9933 58.8084 70.6386 55.4537 66.5776 55.4537C62.5166 55.4537 59.1619 58.8084 59.1619 62.8694V87.9415C59.3384 92.0025 62.5166 95.3572 66.5776 95.3572Z" fill="#090D0F"/>
<path d="M66.7546 80.879H43.2715V85.9994L63.9295 94.8276C67.2843 96.2401 71.1687 95.0041 72.9344 92.0025C75.7594 87.0587 72.4047 80.879 66.7546 80.879Z" fill="#090D0F"/>
<path d="M55.9836 35.1487C60.2212 35.1487 63.7525 31.6174 63.7525 27.3799V25.7907C63.7525 21.5532 60.2212 18.022 55.9836 18.022C51.7461 18.022 48.2148 21.5532 48.2148 25.7907V27.3799C48.2148 31.6174 51.7461 35.1487 55.9836 35.1487Z" fill="#F47A5E"/>
<path d="M59.6917 24.2018C59.6917 24.5549 60.0448 24.7315 60.2213 24.7315C60.5745 24.7315 60.751 24.3784 60.751 24.2018C60.751 23.8487 60.3979 23.6721 60.2213 23.6721C59.8682 23.4956 59.6917 23.8487 59.6917 24.2018Z" fill="#2E1E24"/>
<path d="M54.3945 23.1423C54.3945 23.4954 54.7476 23.6721 54.9242 23.6721C55.2773 23.6721 55.4539 23.3189 55.4539 23.1423C55.4539 22.7892 55.1008 22.6126 54.9242 22.6126C54.7476 22.4361 54.3945 22.7892 54.3945 23.1423Z" fill="#2E1E24"/>
<path d="M60.0444 28.2629C60.0444 30.2051 58.4554 31.6177 56.6897 31.6177C54.7475 31.6177 53.335 30.0286 53.335 28.2629H60.0444Z" fill="#2E1E24"/>
<path d="M77.171 123.608L69.0491 172.339C68.1663 177.107 64.1053 180.638 59.3381 180.815C54.0411 180.991 49.4504 176.93 48.9207 171.457L44.6832 122.372C43.8004 113.014 51.2161 104.715 60.574 104.539C70.8148 104.186 78.7601 113.367 77.171 123.608Z" fill="#193C84"/>
<path d="M48.3918 172.339L50.8638 246.32L56.5138 246.143L68.6967 173.575C69.7561 167.219 64.8123 161.392 58.2794 161.569C52.6293 161.922 48.2153 166.689 48.3918 172.339Z" fill="#193C84"/>
<path d="M59.6913 28.2629C59.6913 28.2629 59.3381 29.8521 56.5131 29.8521C53.6881 29.6755 53.335 28.2629 53.335 28.2629H59.6913Z" fill="white"/>
<path d="M6.19238 58.102C6.19238 56.6895 7.25181 55.6301 8.66433 55.6301C9.37058 55.6301 10.0768 55.9832 10.6065 56.5129L6.54553 59.3379C6.36897 58.9847 6.19238 58.6317 6.19238 58.102Z" fill="#F47A5E"/>
<path d="M9.90027 56.3366C10.0768 56.16 10.0768 55.8069 9.90027 55.6303L7.958 53.6881C7.78144 53.5116 7.42837 53.5116 7.25181 53.6881C7.07524 53.8647 7.07524 54.2178 7.25181 54.3943L9.19397 56.3366C9.37054 56.5132 9.54714 56.5132 9.90027 56.3366Z" fill="#F47A5E"/>
<path d="M51.3935 33.5595L44.8606 55.4535L50.5107 60.927L58.4561 55.4535L57.9264 34.7955L51.3935 33.5595Z" fill="#F47A5E"/>
<path d="M51.3935 33.5595C51.3935 33.5595 52.806 35.1486 57.9264 34.7955L49.981 38.3268L51.3935 33.5595Z" fill="#E65D3E"/>
<path d="M57.396 23.1426L56.5132 27.3802L57.9258 26.8506L57.396 23.1426Z" fill="#C44F35"/>
<path d="M65.5181 25.9673C65.5181 25.9673 57.043 24.9079 54.3945 18.1984C54.3945 18.1984 59.1617 16.7859 64.4586 21.2001C64.4586 21.2001 65.6946 22.7892 65.5181 25.9673Z" fill="#0D080A"/>
<path d="M54.7473 18.1985C54.7473 18.1985 53.5114 25.0845 44.5066 23.1423C44.5066 23.1423 48.0379 17.8454 54.7473 18.1985Z" fill="#0D080A"/>
<path d="M38.68 97.4762C38.68 97.4762 27.9096 105.775 28.0861 122.195L77.171 123.431C77.171 123.431 78.9367 107.54 65.8709 97.2996H38.68V97.4762Z" fill="#193C84"/>
<path d="M51.0396 245.967L45.5662 253.029H59.3382L56.6897 245.967H51.0396Z" fill="#0C1114"/>
<path d="M45.6903 255.39H59.2856V253.094H45.6903V255.39Z" fill="#020A0F"/>
<path d="M56.1601 127.845L21.5534 162.981C18.1987 166.513 12.7252 167.042 8.66425 164.394C4.25014 161.392 2.83765 155.389 5.48612 150.799L30.2051 108.07C34.9724 99.9479 45.5662 97.2994 53.5116 102.596C62.1633 108.246 63.3992 120.429 56.1601 127.845Z" fill="#193C84"/>
<path d="M5.8393 161.569L44.1537 224.955L49.0976 222.13L24.3786 152.917C22.2598 146.914 15.0206 144.265 9.37058 147.62C4.42678 150.269 2.8377 156.625 5.8393 161.569Z" fill="#193C84"/>
<path d="M44.1536 224.426L42.9177 233.254L54.9241 226.545L49.0975 221.601L44.1536 224.426Z" fill="#0C1114"/>
<path d="M44.0009 235.286L55.8684 228.651L54.7482 226.647L42.8807 233.282L44.0009 235.286Z" fill="#020A0F"/>
<path d="M41.8587 85.4697C40.7993 84.5869 40.6228 82.9978 41.329 81.9384C41.8587 81.2322 42.5649 81.0555 43.2712 80.879L43.0947 85.9994C42.7415 85.8228 42.2118 85.6463 41.8587 85.4697Z" fill="#F47A5E"/>
<path d="M43.0942 81.4086C43.0942 81.0555 42.741 80.879 42.5645 80.879L39.7394 81.2321C39.3863 81.2321 39.2097 81.5852 39.2097 81.7618C39.2097 82.1149 39.5628 82.2915 39.7394 82.2915L42.5645 81.9384C42.9176 82.115 43.0942 81.7618 43.0942 81.4086Z" fill="#F47A5E"/>
<path d="M203.415 12.1954C202.356 11.8423 201.12 11.8423 200.06 12.372C198.648 13.2548 196.706 14.8439 196.352 18.022C195.646 23.6721 197.588 27.2034 191.762 27.2034C185.935 27.2034 178.166 35.1488 182.757 41.8582C187.348 48.3911 198.471 50.5098 203.415 43.8004C208.535 37.0909 208.006 15.9032 208.006 15.5501C207.829 15.3735 205.181 12.9016 203.415 12.1954Z" fill="#0F0A0C"/>
<path d="M192.114 122.195L220.541 167.395C223.366 171.809 228.84 173.752 233.783 171.809C239.257 169.691 242.082 163.687 240.316 158.214L224.072 107.187C220.894 97.4758 210.3 92.3555 200.766 96.0633C190.349 100.124 186.111 112.837 192.114 122.195Z" fill="#020A0F"/>
<path d="M214.362 241.376L220.365 242.965L222.66 234.313H214.715L214.362 241.376Z" fill="#020A0F"/>
<path d="M232.548 151.681C225.838 149.916 219.129 154.86 218.776 161.922L214.891 234.313H222.66L240.67 165.277C242.082 159.45 238.551 153.27 232.548 151.681Z" fill="#020A0F"/>
<path d="M220.189 242.259L228.311 251.97L212.949 248.262L214.362 240.846L220.189 242.259Z" fill="#193C84"/>
<path d="M228.465 251.896L213.202 248.157L212.614 250.558L227.877 254.297L228.465 251.896Z" fill="#020A0F"/>
<path d="M250.028 61.2802C249.675 65.3411 245.967 68.3427 241.906 67.9896L216.481 65.6943C212.42 65.3411 209.418 61.6332 209.771 57.5722C210.125 53.5113 213.832 50.5097 217.893 50.8628L243.319 53.1581C247.38 53.6878 250.381 57.2192 250.028 61.2802Z" fill="#193C84"/>
<path d="M240.847 53.5115L263.8 46.9786L265.213 51.9225L247.556 66.2242C244.731 68.5195 240.67 68.3429 237.845 65.871C233.607 62.1632 235.373 55.1006 240.847 53.5115Z" fill="#193C84"/>
<path d="M219.305 93.4149H195.646L191.938 57.0426C191.585 53.6878 194.233 50.6863 197.764 50.6863H215.421C225.132 50.6863 231.841 60.3973 228.487 69.5787L219.305 93.4149Z" fill="#193C84"/>
<path d="M195.47 91.2961C191.409 91.2961 188.054 87.9414 188.054 83.8804V58.4551C188.054 54.3941 191.409 51.0395 195.47 51.0395C199.531 51.0395 202.885 54.3941 202.885 58.4551V83.8804C203.062 87.9414 199.707 91.2961 195.47 91.2961Z" fill="#193C84"/>
<path d="M195.469 76.6412H219.305V81.7615L198.294 90.7663C194.939 92.1788 191.055 90.9429 189.113 87.7647C186.111 82.8209 189.642 76.6412 195.469 76.6412Z" fill="#193C84"/>
<path d="M209.241 50.5098L204.474 30.7347L195.469 23.8486L197.411 50.5098H209.241Z" fill="#EDA291"/>
<path d="M203.238 31.2646C198.824 31.2646 195.293 27.7334 195.293 23.3193V21.7301C195.293 17.316 198.824 13.7847 203.238 13.7847C207.652 13.7847 211.184 17.316 211.184 21.7301V23.3193C211.184 27.5568 207.652 31.2646 203.238 31.2646Z" fill="#EDA291"/>
<path d="M206.593 18.1987C206.593 18.5518 206.24 18.7284 206.063 18.7284C205.887 18.7284 205.533 18.3752 205.533 18.1987C205.533 17.8455 205.887 17.669 206.063 17.669C206.24 17.669 206.593 18.0221 206.593 18.1987Z" fill="#2E1E24"/>
<path d="M182.403 123.254L192.114 172.516C192.997 177.283 197.235 180.815 202.179 180.815C207.652 180.815 212.243 176.577 212.419 171.103L215.421 120.959C215.951 111.425 208.358 103.303 198.824 103.303C188.407 103.303 180.461 113.014 182.403 123.254Z" fill="#020A0F"/>
<path d="M213.125 171.986C213.125 166.159 208.535 161.569 202.708 161.569C196.175 161.569 191.231 167.572 192.467 174.105L205.357 239.434H212.772L213.125 171.986Z" fill="#020A0F"/>
<path d="M205.357 239.257L206.946 247.379H212.772V239.257H205.357Z" fill="#020A0F"/>
<path d="M219.305 93.4149C219.305 93.4149 229.193 111.424 214.715 124.49L184.169 131.2L182.05 121.135C182.05 121.135 178.695 107.717 195.469 93.2383H219.305V93.4149Z" fill="#020A0F"/>
<path d="M200.06 20.6705C200.06 20.6705 207.123 17.3157 207.123 13.7844C207.123 13.7844 203.768 10.4297 198.118 12.3719C192.468 14.3141 191.938 17.3157 191.938 20.6705H200.06Z" fill="#0F0A0C"/>
<path d="M200.237 21.7301C200.237 23.1426 199.177 24.2021 197.765 24.2021C196.352 24.2021 195.293 23.1426 195.293 21.7301C195.293 20.3176 196.352 19.2582 197.765 19.2582C199.177 19.4348 200.237 20.4942 200.237 21.7301Z" fill="#D68472"/>
<path opacity="0.5" d="M204.65 31.0878H198.647L206.063 37.091L204.65 31.0878Z" fill="#EDA291"/>
<path d="M197.412 50.5099L214.539 58.1023L209.065 49.8037L197.412 50.5099Z" fill="#EDA291"/>
<path d="M212.772 247.026L222.66 254.265H207.299L206.946 247.026H212.772Z" fill="#193C84"/>
<path d="M222.661 254.265H207.3V256.561H222.661V254.265Z" fill="#020A0F"/>
<path d="M266.625 50.8628C267.507 49.8034 267.154 48.2143 266.095 47.3315C265.389 46.8018 264.682 46.6252 263.976 46.8018L265.389 51.7456C265.742 51.7456 266.271 51.3925 266.625 50.8628Z" fill="#EDA291"/>
<path d="M264.33 47.5082C264.33 47.1551 264.506 46.9784 264.859 46.9784L267.684 46.6254C268.038 46.6254 268.214 46.8019 268.214 47.155C268.214 47.5082 268.038 47.6847 267.684 47.6847L264.859 48.0379C264.506 48.0379 264.33 47.6848 264.33 47.5082Z" fill="#EDA291"/>
<path d="M210.477 18.3752C210.477 18.3752 210.477 20.1408 211.713 20.3174C212.949 20.3174 213.655 21.0237 212.772 22.083C211.889 22.9659 211.36 22.7893 210.83 22.2596C210.3 21.7299 210.477 18.3752 210.477 18.3752Z" fill="#D68472"/>
<path d="M191.938 20.6706L192.644 32.6769C195.469 32.6769 197.765 30.0285 197.058 27.2035L195.646 20.494L191.938 20.6706Z" fill="#0F0A0C"/>
<path d="M207.122 13.7847C207.122 13.7847 208.005 18.552 200.236 21.0239C200.236 21.0239 205.357 18.3754 207.122 13.7847Z" fill="#4A303A"/>
<path d="M208.535 25.0846C208.535 25.0846 205.71 21.2001 203.591 21.2001C201.472 21.2001 201.119 26.6736 204.121 27.5564C207.299 28.6158 208.888 26.8502 208.535 25.0846Z" fill="#2E1E24"/>
<path d="M204.827 21.5535C204.827 21.5535 204.474 23.6723 205.71 24.5551C206.946 25.438 208.182 24.5551 208.182 24.5551C208.182 24.5551 205.886 21.9067 204.827 21.5535Z" fill="white"/>
<path d="M220.894 81.2318C221.954 80.349 222.13 78.7599 221.424 77.7005C220.894 76.9943 220.188 76.6412 219.482 76.6412V81.7615C219.835 81.7615 220.541 81.4084 220.894 81.2318Z" fill="#EDA291"/>
<path d="M219.658 77.1708C219.658 76.8177 220.011 76.6412 220.188 76.6412L223.013 76.9942C223.366 76.9942 223.542 77.3474 223.542 77.524C223.542 77.8771 223.189 78.0537 223.013 78.0537L220.188 77.7005C219.835 77.7005 219.481 77.524 219.658 77.1708Z" fill="#EDA291"/>
<path d="M127.139 31.9704C136.306 31.9704 143.736 25.014 143.736 16.4328C143.736 7.85157 136.306 0.895142 127.139 0.895142C117.973 0.895142 110.542 7.85157 110.542 16.4328C110.542 25.014 117.973 31.9704 127.139 31.9704Z" fill="#0F0A0C"/>
<path d="M106.834 116.016C110.012 128.198 121.312 137.38 134.555 137.38C147.797 137.38 158.92 128.375 162.275 116.016H106.834Z" fill="#161F26"/>
<path d="M122.372 183.463C128.198 183.64 132.966 179.049 133.319 173.222L135.614 126.609C135.967 118.311 129.434 111.248 121.136 111.248C112.308 111.072 105.245 118.84 106.304 127.669L111.955 173.929C112.484 179.225 117.075 183.286 122.372 183.463Z" fill="#161F26"/>
<path d="M112.131 176.047C111.602 170.397 115.663 165.1 121.313 164.394C127.846 163.511 133.672 168.808 133.496 175.341L131.553 229.546L117.605 229.37L112.131 176.047Z" fill="#161F26"/>
<path d="M131.553 229.723L131.023 244.025L119.017 243.848L117.604 229.37L131.553 229.723Z" fill="#0C1114"/>
<path d="M107.894 253.029C107.894 250.204 110.189 247.909 113.014 247.909L128.905 248.085V253.206L107.894 253.029Z" fill="#AAAAAA"/>
<path d="M120.702 248.058L128.999 248.187L129.065 243.95L120.767 243.821L120.702 248.058Z" fill="#9C513F"/>
<path d="M107.838 256.106L128.847 256.431L128.893 253.429L107.884 253.105L107.838 256.106Z" fill="#020A0F"/>
<path d="M157.685 185.405C152.035 186.641 146.385 182.933 145.149 177.283L134.378 131.906C132.436 123.784 137.556 115.839 145.855 114.073C154.507 112.308 162.805 118.664 163.511 127.492L166.513 174.105C166.69 179.579 162.982 184.346 157.685 185.405Z" fill="#161F26"/>
<path d="M166.69 176.401C167.396 170.751 163.512 165.454 157.685 164.571C151.152 163.511 145.325 168.632 145.325 175.341L146.208 229.723H160.157L166.69 176.401Z" fill="#161F26"/>
<path d="M146.208 229.546L146.561 244.024H158.391L160.157 229.723L146.208 229.546Z" fill="#0C1114"/>
<path d="M169.338 253.559C169.338 253.382 169.338 253.382 169.338 253.559C169.338 250.734 167.043 248.439 164.395 248.439H148.504V253.559H169.338Z" fill="#AAAAAA"/>
<path d="M156.824 244.049L148.525 244.017L148.509 248.254L156.807 248.287L156.824 244.049Z" fill="#9C513F"/>
<path d="M169.357 253.432L148.346 253.35L148.334 256.352L169.345 256.433L169.357 253.432Z" fill="#020A0F"/>
<path d="M131.023 14.4908C129.081 14.4908 126.609 15.3736 124.843 16.6096V30.7348C126.785 31.9707 129.081 32.8535 131.023 32.8535C135.261 32.8535 138.615 29.4988 138.615 25.2612V22.0831C138.615 18.0221 135.261 14.4908 131.023 14.4908Z" fill="#9C513F"/>
<path d="M122.196 51.5694H131.024V14.4908H126.433C123.608 14.4908 122.372 16.9627 122.196 19.6111V51.5694Z" fill="#9C513F"/>
<path d="M133.319 32.677L136.674 51.5694H130.494V32.677H133.319Z" fill="#9C513F"/>
<path d="M162.982 116.015H103.833V55.1005C103.833 50.6864 107.364 47.1552 111.778 47.1552H154.86C159.274 47.1552 162.805 50.6864 162.805 55.1005V116.015H162.982Z" fill="#8BB3B3"/>
<path d="M162.982 115.662H103.833V122.725H162.982V115.662Z" fill="#0C1114"/>
<path d="M116.369 47.1552C118.664 51.7458 123.431 54.9239 129.082 54.9239C134.732 54.9239 139.499 51.7458 141.794 47.1552H116.369Z" fill="#9C513F"/>
<path d="M90.9436 105.775C85.1169 103.479 82.1154 96.9464 84.2341 91.1198L98.0061 54.571C100.301 48.7444 106.834 45.7427 112.661 47.8615C118.488 50.1568 121.489 56.6898 119.37 62.5164L105.598 99.0652C103.303 105.068 96.7702 108.07 90.9436 105.775Z" fill="#364B5E"/>
<path d="M96.7707 83.7042C87.7659 82.4682 81.233 91.8261 85.1174 99.7715C87.7658 105.068 93.9457 107.364 99.4192 105.068L111.249 100.125L116.546 86.176L96.7707 83.7042Z" fill="#364B5E"/>
<path d="M122.725 87.4118L116.545 86.5289L111.425 100.478L118.841 97.2993L122.725 87.4118Z" fill="#0C1114"/>
<path d="M119.724 95.7105L119.547 95.5339L122.372 87.9417L122.549 88.1183C124.668 89.0011 125.727 91.2964 124.844 93.4152C124.315 95.534 121.843 96.5933 119.724 95.7105Z" fill="#9C513F"/>
<path d="M127.493 92.0026L122.725 90.237C122.196 90.0604 122.019 89.5308 122.196 89.0011C122.372 88.4714 122.902 88.2948 123.432 88.4713L128.199 90.237C128.729 90.4136 128.905 90.9433 128.729 91.473C128.552 92.0027 128.022 92.1792 127.493 92.0026Z" fill="#9C513F"/>
<path d="M174.636 105.775C180.462 103.479 183.464 96.9464 181.345 91.1198L167.573 54.571C165.278 48.7444 158.745 45.7427 152.918 47.8615C147.092 50.1568 144.09 56.6898 146.209 62.5164L159.981 99.0652C162.1 105.068 168.632 108.07 174.636 105.775Z" fill="#364B5E"/>
<path d="M168.632 83.7042C177.637 82.4682 184.17 91.8261 180.285 99.7715C177.637 105.068 171.457 107.364 165.983 105.068L154.154 100.125L148.857 86.176L168.632 83.7042Z" fill="#364B5E"/>
<path d="M142.854 87.4118L148.857 86.5289L154.154 100.478L146.562 97.2993L142.854 87.4118Z" fill="#0C1114"/>
<path d="M145.679 95.7105L145.855 95.5339L143.03 87.9417L142.854 88.1183C140.735 89.0011 139.676 91.2964 140.559 93.4152C141.265 95.534 143.56 96.5933 145.679 95.7105Z" fill="#9C513F"/>
<path d="M137.91 92.0026L142.677 90.237C143.207 90.0604 143.383 89.5308 143.207 89.0011C143.03 88.4714 142.5 88.2948 141.971 88.4713L137.203 90.237C136.674 90.4136 136.497 90.9433 136.674 91.473C136.85 92.0027 137.38 92.1792 137.91 92.0026Z" fill="#9C513F"/>
<path d="M127.669 19.9645C127.669 20.3176 127.316 20.6708 126.963 20.6708C126.61 20.6708 126.257 20.3176 126.257 19.9645C126.257 19.6114 126.61 19.2582 126.963 19.2582C127.493 19.2582 127.669 19.6114 127.669 19.9645Z" fill="#2E1E24"/>
<path d="M133.142 19.9645C133.142 20.3176 132.789 20.6708 132.436 20.6708C132.083 20.6708 131.73 20.3176 131.73 19.9645C131.73 19.6114 132.083 19.2582 132.436 19.2582C132.789 19.2582 133.142 19.6114 133.142 19.9645Z" fill="#2E1E24"/>
<path opacity="0.2" d="M130.141 17.6691L131.73 24.7316L130.141 24.5551V17.6691Z" fill="#9C513F"/>
<path d="M122.372 21.0238C120.783 21.0238 119.547 22.2598 119.547 23.6723C119.547 25.0848 120.783 26.3207 122.196 26.3207C122.196 26.3207 122.196 26.3207 122.372 26.3207V21.0238Z" fill="#944D3C"/>
<path opacity="0.2" d="M133.318 32.677H124.843L134.378 38.5036L133.318 32.677Z" fill="#9C513F"/>
<path d="M123.432 16.0801C123.432 16.0801 124.844 19.6114 122.372 21.0239L120.607 21.5536L120.96 16.4332L123.432 16.0801Z" fill="#0F0A0C"/>
<path d="M120.959 16.4331C120.959 16.4331 122.549 12.019 129.081 11.3128C135.614 10.6065 136.85 13.4316 134.908 15.3738L120.959 16.4331Z" fill="#0F0A0C"/>
<path d="M125.903 17.4926C125.903 17.4926 127.139 16.4332 128.375 16.7864V17.4926C128.375 17.4926 127.139 17.1395 125.903 17.4926Z" fill="#2E1E24"/>
<path d="M133.672 17.3161C133.672 17.3161 132.966 16.4333 131.377 16.7864L131.553 17.4926C131.553 17.4926 132.789 16.7864 133.672 17.3161Z" fill="#2E1E24"/>
<path d="M127.846 26.144C127.846 27.9097 129.258 29.3222 131.2 29.3222C132.966 29.3222 134.379 27.9097 134.555 26.144H127.846Z" fill="#2E1E24"/>
<path d="M128.022 26.144C128.022 26.144 128.375 27.7331 131.023 27.5565C133.672 27.38 134.025 26.144 134.025 26.144H128.022Z" fill="white"/>
</svg>
