<svg width="36" height="37" viewBox="0 0 36 37" fill="none" xmlns="http://www.w3.org/2000/svg">
<circle cx="18" cy="18.9403" r="18" fill="#5E5E60"/>
<path d="M22.9156 14.2497H22.9256M14.2656 27.0497H22.2656C24.4747 27.0497 26.2656 25.2588 26.2656 23.0497V15.0497C26.2656 12.8405 24.4747 11.0497 22.2656 11.0497H14.2656C12.0565 11.0497 10.2656 12.8405 10.2656 15.0497V23.0497C10.2656 25.2588 12.0565 27.0497 14.2656 27.0497ZM22.0156 19.0497C22.0156 21.1208 20.3367 22.7997 18.2656 22.7997C16.1946 22.7997 14.5156 21.1208 14.5156 19.0497C14.5156 16.9786 16.1946 15.2997 18.2656 15.2997C20.3367 15.2997 22.0156 16.9786 22.0156 19.0497Z" stroke="white" stroke-width="2" stroke-linecap="round" stroke-linejoin="round"/>
</svg>
