<svg width="36" height="37" viewBox="0 0 36 37" fill="none" xmlns="http://www.w3.org/2000/svg">
<circle cx="18" cy="18.9403" r="18" fill="#5E5E60"/>
<g clip-path="url(#clip0_43_123)">
<path fill-rule="evenodd" clip-rule="evenodd" d="M13.6407 26.5712V16.2723H10.218V26.5712H13.6407V26.5712ZM11.9297 14.8667C13.1229 14.8667 13.8662 14.0752 13.8662 13.0869C13.8437 12.0767 13.1229 11.3075 11.9521 11.3075C10.7811 11.3075 10.0156 12.0767 10.0156 13.0869C10.0156 14.0752 10.7585 14.8667 11.9072 14.8667L11.9297 14.8667ZM15.5351 26.5712C15.5351 26.5712 15.58 17.2386 15.5351 16.2723H18.9584V17.7659H18.9357C19.3858 17.0631 20.1968 16.0305 22.0432 16.0305C24.2959 16.0305 25.9843 17.5025 25.9843 20.6659V26.5712H22.5616V21.0616C22.5616 19.6772 22.0663 18.7325 20.8273 18.7325C19.8819 18.7325 19.3184 19.3694 19.071 19.985C18.9805 20.2042 18.9584 20.5119 18.9584 20.8197V26.5712H15.5351Z" fill="white"/>
</g>
<defs>
<clipPath id="clip0_43_123">
<rect width="16" height="16" fill="white" transform="translate(10 10.9403)"/>
</clipPath>
</defs>
</svg>
