<svg width="89" height="35" viewBox="0 0 89 35" fill="none" xmlns="http://www.w3.org/2000/svg">
<mask id="mask0_30_649" style="mask-type:luminance" maskUnits="userSpaceOnUse" x="0" y="4" width="89" height="27">
<path d="M88.4582 4.79218H0V30.7982H88.4582V4.79218Z" fill="white"/>
</mask>
<g mask="url(#mask0_30_649)">
<path d="M14.5327 12.6104C14.5327 11.4943 14.55 10.3782 14.5169 9.26364C14.5107 9.04888 14.3172 8.66013 14.2007 8.65542C12.9202 8.61153 11.6381 8.6272 10.356 8.6272C10.3135 9.07084 10.282 9.3969 10.2443 9.77153C7.72567 7.83402 4.44407 7.845 2.20549 9.73548C-0.0173806 11.615 -0.670239 15.4508 0.755036 18.2176C1.40475 19.4795 2.35021 20.4451 3.67165 20.9718C5.78753 21.8136 7.86724 21.7634 9.84626 20.4624C9.9674 21.8058 9.37905 22.6178 8.06861 22.972C6.64018 23.3577 5.30774 23.052 4.0445 22.3528C3.65907 22.1397 3.29096 21.8951 2.86778 21.6365C2.09221 22.7181 1.34654 23.7589 0.519063 24.9142C0.674806 25.002 0.791219 25.0554 0.893473 25.1258C1.13731 25.2967 1.36856 25.4864 1.6187 25.6495C3.58829 26.9364 5.7671 27.3817 8.09378 27.2469C12.2091 27.0085 14.4776 24.6791 14.5232 20.5721C14.5531 17.9198 14.5311 15.2659 14.5311 12.612L14.5327 12.6104ZM7.27416 18.6894C5.19446 18.6847 3.71098 17.0795 3.70627 14.8269C3.70155 12.6041 5.11424 11.1541 7.28519 11.1541C9.45928 11.1541 10.8185 12.5226 10.8326 14.7235C10.8468 17.0701 9.39005 18.6941 7.27416 18.6879V18.6894Z" fill="#FF7882"/>
<path d="M88.4464 12.6104C88.4464 11.4943 88.4636 10.3782 88.4307 9.26364C88.4243 9.04888 88.2308 8.66013 88.1144 8.65542C86.8338 8.61153 85.5517 8.6272 84.2696 8.6272C84.2272 9.07084 84.1957 9.3969 84.158 9.77153C81.6394 7.83402 78.3578 7.845 76.1191 9.73548C73.8947 11.6134 73.2419 15.4493 74.6671 18.216C75.3168 19.4779 76.2624 20.4435 77.5838 20.9702C79.6997 21.812 81.7793 21.7619 83.7583 20.4608C83.8795 21.8042 83.2911 22.6162 81.9807 22.9704C80.5522 23.3561 79.2199 23.0504 77.9565 22.3513C77.5712 22.1381 77.203 21.8936 76.7799 21.6349C76.0043 22.7165 75.2586 23.7573 74.4311 24.9126C74.587 25.0005 74.7034 25.0538 74.8056 25.1244C75.0494 25.2951 75.2807 25.4848 75.5308 25.6479C77.5004 26.9348 79.6792 27.3801 82.0058 27.2453C86.1212 27.007 88.3897 24.6775 88.4353 20.5705C88.4652 17.9182 88.4433 15.2643 88.4433 12.6104H88.4464ZM81.1879 18.6894C79.1081 18.6847 77.6246 17.0795 77.6199 14.8269C77.6153 12.6041 79.0279 11.1541 81.1989 11.1541C83.373 11.1541 84.7321 12.5226 84.7462 14.7235C84.7604 17.0701 83.3037 18.6941 81.1879 18.6879V18.6894Z" fill="#FF7882"/>
<path d="M17.5416 22.992C18.1457 22.992 18.6664 23.0093 19.1855 22.9874C20.0318 22.9513 20.8467 22.8133 21.3817 22.0483C21.8143 21.4307 21.9983 20.8554 21.6648 20.045C20.1562 16.3878 18.7372 12.6947 17.2867 9.014C17.2159 8.83372 17.1624 8.64718 17.0523 8.31799H20.0334C21.9653 8.31799 21.9731 8.31486 22.5929 10.1035C23.2317 11.9453 23.853 13.7935 24.5579 15.8611C24.767 15.4128 24.9117 15.1495 25.0172 14.872C25.7786 12.8843 26.5243 10.892 27.2983 8.90897C27.3848 8.68637 27.6129 8.35562 27.7827 8.35092C29.2819 8.30702 30.7813 8.32583 32.3969 8.32583C32.2584 8.68324 32.1734 8.93405 32.0648 9.17703C30.0308 13.7543 27.9984 18.3316 25.9532 22.9042C25.7188 23.4279 25.4356 23.9356 25.1226 24.4184C23.5541 26.8388 20.628 27.8577 17.9239 26.9282C17.7712 26.8765 17.562 26.6821 17.5589 26.5489C17.5305 25.3795 17.5416 24.21 17.5416 22.9936V22.992Z" fill="#FF7882"/>
<path d="M57.9103 23.1541C58.5647 23.1541 59.0949 23.1744 59.6235 23.1493C60.4809 23.1086 61.2942 22.9503 61.8258 22.1696C62.2585 21.5348 62.4064 20.9516 62.073 20.1428C60.4855 16.285 58.9895 12.3911 57.4273 8.42519C57.6665 8.38757 57.8505 8.33427 58.0347 8.33271C59.2789 8.32487 60.5233 8.34994 61.7662 8.31859C62.2601 8.30605 62.4788 8.48946 62.6297 8.94719C63.3172 11.0368 64.0378 13.1154 64.752 15.1971C64.8212 15.3993 64.9171 15.5937 65.0729 15.9605C65.5039 14.8428 65.8752 13.8882 66.2402 12.9304C66.7545 11.5838 67.2517 10.2295 67.7881 8.89233C67.8762 8.67287 68.1231 8.36406 68.3025 8.35935C69.7939 8.31546 71.2868 8.33427 72.8804 8.33427C72.7987 8.60546 72.7624 8.79358 72.6869 8.96444C70.5835 13.7048 68.4993 18.4545 66.3596 23.1792C65.5023 25.0743 64.3177 26.7814 62.0997 27.1703C60.9041 27.3803 59.6345 27.1936 58.4011 27.1388C58.2312 27.131 57.9354 26.8582 57.9292 26.6998C57.8884 25.543 57.9071 24.3845 57.9071 23.1525L57.9103 23.1541Z" fill="#FF7882"/>
<path d="M56.4934 15.0192C56.429 14.5051 56.3315 14.0003 56.2024 13.5097C56.1994 13.5003 56.1962 13.4893 56.1946 13.4783C56.1128 13.1695 56.0184 12.8654 55.9113 12.5676C55.6613 11.8622 55.3434 11.1897 54.9675 10.5532C54.9659 10.5501 54.9627 10.5454 54.9613 10.5423C54.4594 9.69578 53.8522 8.91826 53.1599 8.22539C52.4583 7.52469 51.6687 6.91177 50.8066 6.40545C49.8956 5.87091 48.9061 5.45393 47.8584 5.17804C47.3551 5.0448 46.8391 4.94604 46.3104 4.88177C45.8354 4.8222 45.3508 4.79242 44.8601 4.79242C44.3691 4.79242 43.8642 4.82377 43.3796 4.88491C42.31 5.01972 41.2842 5.29718 40.323 5.70004C38.9528 6.27377 37.7148 7.09831 36.6671 8.11724L36.6166 8.1674L36.5176 8.26615L36.4673 8.31631C35.4856 9.31799 34.6833 10.4952 34.1106 11.7947C33.6671 12.8027 33.3635 13.8859 33.2218 15.0192C33.162 15.4973 33.1307 15.9849 33.1307 16.4802C33.1307 16.7357 33.1385 16.9912 33.1558 17.242C33.1715 17.4772 33.1935 17.7092 33.2218 17.9396C33.288 18.4601 33.387 18.9711 33.5192 19.468C33.7945 20.512 34.2129 21.498 34.7495 22.4072L34.7714 22.3853C34.8563 22.5656 34.9524 22.7379 35.0608 22.904C35.0766 22.9276 35.0923 22.9511 35.1081 22.9746C35.3628 23.3524 35.6776 23.688 36.0362 23.9686C36.2612 24.1456 36.5034 24.3008 36.7614 24.431C36.7913 24.4466 36.8227 24.4623 36.8526 24.4763C37.4285 24.7523 38.0734 24.9074 38.7531 24.9074C39.3696 24.9074 39.9565 24.7804 40.4899 24.5517C40.7761 24.4294 41.0466 24.2773 41.2968 24.1002C41.4305 24.0061 41.5579 23.9057 41.6775 23.7976L42.0377 23.4387L43.378 22.1046L43.8076 21.6767L44.8569 20.6296L44.8742 20.6139L46.3088 19.1843L46.8767 18.6184L46.9397 18.5557L47.0169 18.4789L47.2684 18.2281L47.5564 17.9412H44.8585C44.8585 17.9412 44.8489 17.9412 44.8443 17.9412C44.4478 17.9412 44.0876 17.7844 43.8249 17.5305C43.5496 17.2656 43.3796 16.894 43.378 16.4818V13.8091L42.7772 14.4079L42.1637 15.0192L40.6974 16.4802L40.622 16.5554L39.6513 17.5211L39.6451 17.5148C39.3918 17.7672 39.0457 17.9271 38.6602 17.9412C38.6429 17.9412 38.6257 17.9412 38.6084 17.9412C38.591 17.9412 38.5737 17.9412 38.5564 17.9412C37.7714 17.9145 37.1421 17.2718 37.1421 16.4818C37.1421 16.4818 37.1437 16.452 37.1421 16.4457C37.1516 16.0554 37.3137 15.7058 37.5716 15.4472L37.9839 15.0192L40.7446 12.2682L43.378 9.64247L43.8076 9.23648H43.8092C44.0735 8.97155 44.4401 8.80852 44.8443 8.80852C44.8489 8.80852 44.8537 8.80852 44.8585 8.80852C45.6624 8.8148 46.3104 9.46692 46.3104 10.2679V15.0161H50.9984C51.0378 15.013 51.0787 15.0114 51.118 15.0114C51.1574 15.0114 51.1983 15.013 51.2376 15.0161C51.5932 15.0443 51.9141 15.2011 52.1531 15.4378C52.4174 15.7027 52.5826 16.0679 52.5826 16.4708V16.4771C52.5811 16.8517 52.4395 17.1903 52.2067 17.4474C52.1894 17.4662 52.172 17.485 52.1531 17.5038C52.1343 17.5226 52.1154 17.5399 52.0965 17.5571L51.7158 17.9365L51.5224 18.1293L51.3193 18.3315L50.1757 19.4711C50.1458 19.5072 50.1159 19.5401 50.0828 19.573C50.0513 19.6044 50.0168 19.6357 49.9822 19.6639L49.4473 20.1969L49.2492 20.3944L49.0052 20.6374L48.1086 21.5309C48.1086 21.5309 48.107 21.5325 48.107 21.5341C48.0771 21.5701 48.0456 21.6062 48.0125 21.6375C47.9796 21.6704 47.945 21.7018 47.9089 21.7316L46.3104 23.3242L46.2287 23.4074C46.0792 23.5217 46.0194 23.619 45.8856 23.7522H45.8841C45.4342 24.2021 45.0803 24.7475 44.8585 25.3558C44.6885 25.823 44.5958 26.3261 44.5958 26.8512C44.5958 27.3075 44.6665 27.7463 44.7955 28.1618C44.8254 28.2213 44.8617 28.3702 44.8585 28.3483C45.0299 28.8185 45.2801 29.2513 45.593 29.6322L46.1988 30.2356C46.2239 30.256 46.249 30.2763 46.2743 30.2967C46.2853 30.3062 46.2979 30.3156 46.3088 30.3234C46.5245 30.4895 46.7557 30.6369 46.9995 30.7591C47.0246 30.7717 47.0498 30.7843 47.0735 30.7952L49.6534 28.226C49.7589 28.0928 49.8721 27.9674 49.9917 27.8482C50.1111 27.7291 50.2387 27.6162 50.3722 27.5111L52.9508 24.9404C52.9508 24.9404 52.9508 24.9372 52.9476 24.9358C53.0152 24.8714 53.0828 24.8055 53.149 24.7397C54.1982 23.6942 55.0508 22.4495 55.6424 21.0701C56.0656 20.0872 56.355 19.0354 56.4934 17.9365C56.5532 17.4584 56.5847 16.9709 56.5847 16.4755C56.5847 15.9802 56.5532 15.4926 56.4934 15.0145V15.0192Z" fill="#FF7882"/>
</g>
</svg>
