<svg width="91" height="34" viewBox="0 0 91 34" fill="none" xmlns="http://www.w3.org/2000/svg">
<path d="M17.4987 6.00385L8.50803 21.9183H11.5986L17.4987 11.4034L25.0846 24.7602H6.82228L5.13654 27.6021H29.8608L17.4987 6.00385Z" fill="#6847DE"/>
<path d="M88.8111 21.0716L89.9118 22.629L88.1856 23.9224L86.9614 22.2256C86.8747 22.2532 86.791 22.2804 86.7068 22.3062C85.2699 22.7485 83.8296 22.7569 82.4073 22.2672C80.7745 21.7048 79.6234 20.5737 78.9876 18.9292C78.2713 17.0746 78.2685 15.1924 79.0088 13.3445C79.7637 11.4589 81.1482 10.3082 83.0722 9.86276C84.1818 9.60616 85.2988 9.62247 86.398 9.92799C88.3072 10.4588 89.6257 11.6936 90.2986 13.6039C90.9584 15.4775 90.8914 17.3532 90.1126 19.1868C89.8415 19.8175 89.4604 20.3914 88.9882 20.88C88.9366 20.9353 88.8864 20.9906 88.8111 21.0716ZM87.1378 18.7115C87.1991 18.6257 87.2366 18.5816 87.2653 18.5314C87.3352 18.4065 87.4073 18.2824 87.4671 18.1522C87.8598 17.2971 87.9532 16.394 87.8356 15.4668C87.7296 14.6315 87.4347 13.8719 86.8723 13.2469C86.0996 12.3874 85.1355 12.0748 84.0267 12.2743C83.0139 12.4562 82.3025 13.0782 81.8248 13.9953C81.3903 14.8288 81.2626 15.728 81.3481 16.6611C81.4165 17.4082 81.6334 18.1082 82.0614 18.7251C82.7696 19.7443 83.7379 20.1902 84.9443 20.0883C85.0755 20.0771 85.2197 20.084 85.3539 19.98L84.2206 18.3785L85.965 17.0504L87.1378 18.7115Z" fill="#6847DE"/>
<path d="M45.4454 21.9807H42.3614C42.0999 21.2265 41.8362 20.4658 41.5701 19.6984H36.3665L35.5788 21.9739H32.5009C32.5308 21.8846 32.5554 21.8014 32.5861 21.7203C33.4017 19.562 34.2178 17.4039 35.0344 15.2458C35.7043 13.4752 36.3744 11.7045 37.0447 9.93378C37.147 9.66066 37.1171 9.68476 37.4049 9.6845C38.4453 9.68349 39.4857 9.68349 40.526 9.6845C40.8151 9.6845 40.7878 9.65382 40.8911 9.92744C42.377 13.8561 43.863 17.7849 45.3492 21.7137C45.3776 21.7908 45.405 21.8697 45.4454 21.9807ZM37.187 17.2893C37.5208 17.3435 40.5432 17.3296 40.7448 17.2725C40.1613 15.5777 39.5779 13.8837 38.9946 12.1905L38.9399 12.1941C38.3561 13.8899 37.7718 15.588 37.187 17.2882V17.2893Z" fill="#6847DE"/>
<path d="M72.6312 17.6945C72.5872 19.4626 71.9547 20.8529 70.534 21.8231C69.5883 22.4686 68.5238 22.6913 67.3902 22.6168C66.8365 22.5804 66.2982 22.4712 65.7853 22.258C64.6133 21.7703 63.7768 20.9362 63.3138 19.756C62.7841 18.4055 62.7885 17.0395 63.352 15.7004C63.9786 14.2125 65.1272 13.3429 66.6982 13.0338C67.6985 12.8369 68.6902 12.8899 69.641 13.279C71.2712 13.9457 72.2177 15.1775 72.5459 16.8956C72.6014 17.182 72.6097 17.4769 72.6312 17.6945ZM69.7801 17.923C69.7834 17.1556 69.6033 16.5751 69.1599 16.0946C68.9891 15.9081 68.7823 15.7582 68.552 15.654C68.3218 15.5498 68.0728 15.4934 67.8201 15.4882C67.5674 15.483 67.3163 15.5292 67.082 15.6239C66.8476 15.7186 66.6349 15.8599 66.4566 16.0393C65.5988 16.893 65.545 18.4712 66.3416 19.4026C67.0985 20.2856 68.4088 20.3063 69.1855 19.4409C69.5622 19.0245 69.774 18.4847 69.7808 17.923H69.7801Z" fill="#6847DE"/>
<path d="M45.4574 13.5809H48.2641C48.2669 13.6823 48.2721 13.7779 48.2721 13.8736C48.2721 15.3921 48.2729 16.9106 48.2744 18.4291C48.2725 18.6113 48.2871 18.7933 48.3179 18.973C48.5116 20.0144 49.4494 20.2682 50.1583 20.1307C50.9377 19.9813 51.4836 19.4067 51.6301 18.5865C51.6709 18.3411 51.6906 18.0928 51.6891 17.8443C51.6947 16.5242 51.6916 15.2056 51.6916 13.886V13.621C51.8902 13.559 54.1976 13.5463 54.505 13.6031V22.3056C54.3315 22.3584 52.0279 22.3723 51.6893 22.3163V21.2L51.643 21.1923C51.6195 21.2229 51.5941 21.2523 51.5737 21.2847C51.1267 21.9923 50.4721 22.4204 49.6373 22.5626C48.5242 22.7522 47.5019 22.5377 46.6352 21.8037C46.0455 21.3056 45.7134 20.6533 45.5632 19.9193C45.4932 19.5865 45.4555 19.2481 45.4507 18.9085C45.4396 17.2074 45.4453 15.5062 45.4458 13.8053C45.4458 13.7396 45.4525 13.6743 45.4574 13.5809Z" fill="#6847DE"/>
<path d="M57.4057 15.6035H55.7967V13.6354C55.9706 13.5963 56.1401 13.566 56.3038 13.5203C56.9482 13.342 57.3969 12.9242 57.653 12.2762C57.852 11.7747 57.9126 11.2446 57.9395 10.7081C57.9452 10.5979 57.9395 10.487 57.9395 10.3856C58.1427 10.3224 59.7519 10.3066 60.0934 10.3615V13.1893H62.2169C62.2716 13.4011 62.288 15.131 62.2426 15.5939C61.5432 15.6271 60.8367 15.5913 60.1184 15.6141C60.1099 15.7004 60.0981 15.7663 60.0978 15.8318C60.0969 16.8686 60.0969 17.9054 60.0978 18.9422C60.098 19.0455 60.1062 19.1487 60.1224 19.2506C60.1884 19.6635 60.4268 19.9066 60.8048 20.0046C61.204 20.1083 61.6004 20.05 61.9966 19.9787C62.0746 19.9644 62.1531 19.9528 62.2475 19.939V22.3426C62.174 22.3685 62.0935 22.405 62.0093 22.4276C61.1981 22.6445 60.3799 22.6896 59.5562 22.5294C58.5396 22.3319 57.8922 21.7021 57.6061 20.656C57.4739 20.1652 57.4068 19.6575 57.4067 19.1472C57.4018 18.0762 57.4043 17.005 57.4035 15.9332L57.4057 15.6035Z" fill="#6847DE"/>
<path d="M73.9535 9.68347H77.1562V21.9259C76.9627 21.9809 74.5022 22.002 73.9712 21.9541C73.9181 21.7786 73.8973 10.0547 73.9535 9.68347Z" fill="#6847DE"/>
</svg>
