<svg width="144" height="35" viewBox="0 0 144 35" fill="none" xmlns="http://www.w3.org/2000/svg">
<g clip-path="url(#clip0_30_665)">
<path d="M19.5864 9.69365V30.9071C19.586 31.108 19.647 31.3043 19.7613 31.4696C19.8755 31.6349 20.0376 31.7614 20.2257 31.8321L27.7616 34.7227C27.9308 34.7874 28.1145 34.8046 28.2928 34.7724C28.4711 34.7403 28.6371 34.6599 28.773 34.5401C28.9089 34.4203 29.0095 34.2657 29.0638 34.0929C29.1181 33.92 29.124 33.7356 29.0811 33.5596L26.8366 24.5818C26.8164 24.4968 26.8203 24.4078 26.848 24.3249C26.8756 24.242 26.9259 24.1684 26.993 24.1125L33.6584 18.7599C33.8638 18.5956 33.9957 18.3565 34.025 18.0951C34.0543 17.8337 33.9787 17.5713 33.8148 17.3656C32.3933 15.6176 28.3737 11.3804 20.8922 8.76187C20.7439 8.71413 20.5864 8.70173 20.4324 8.72567C20.2784 8.74961 20.1321 8.80921 20.0053 8.89973C19.8784 8.99026 19.7744 9.10918 19.7017 9.24702C19.629 9.38487 19.5895 9.53783 19.5864 9.69365Z" fill="#00296B"/>
<path d="M16.699 9.69397V30.9074C16.7009 31.1077 16.6412 31.3039 16.5281 31.4693C16.415 31.6347 16.2539 31.7615 16.0665 31.8324L8.53059 34.723C8.36135 34.7904 8.17676 34.8095 7.9973 34.7783C7.81783 34.7472 7.6505 34.6669 7.51386 34.5465C7.37721 34.4261 7.27659 34.2701 7.22316 34.0959C7.16972 33.9218 7.16556 33.7363 7.21113 33.5599L9.44878 24.5822C9.47246 24.4973 9.47022 24.4072 9.44235 24.3235C9.41447 24.2399 9.36223 24.1665 9.29234 24.1128L2.63382 18.7602C2.53134 18.6794 2.44592 18.579 2.3825 18.465C2.31909 18.3509 2.27894 18.2254 2.26439 18.0957C2.24984 17.966 2.26117 17.8347 2.29773 17.7094C2.3343 17.5842 2.39536 17.4674 2.47739 17.3659C3.89207 15.6179 7.91848 11.3807 15.4 8.76219C15.548 8.71423 15.7051 8.70169 15.8588 8.72562C16.0125 8.74954 16.1585 8.80926 16.2849 8.89993C16.4113 8.99059 16.5146 9.10967 16.5866 9.24759C16.6585 9.38552 16.697 9.53843 16.699 9.69397Z" fill="#00296B"/>
<path d="M22.1024 6.98898C23.3344 6.98898 24.3332 5.60347 24.3332 3.89436C24.3332 2.18525 23.3344 0.799744 22.1024 0.799744C20.8703 0.799744 19.8715 2.18525 19.8715 3.89436C19.8715 5.60347 20.8703 6.98898 22.1024 6.98898Z" fill="#FFC529"/>
<path d="M26.1324 9.42026C26.9626 9.42026 27.6355 8.44888 27.6355 7.25063C27.6355 6.05237 26.9626 5.08099 26.1324 5.08099C25.3023 5.08099 24.6293 6.05237 24.6293 7.25063C24.6293 8.44888 25.3023 9.42026 26.1324 9.42026Z" fill="#FFC529"/>
<path d="M29.546 11.6139C30.2184 11.6139 30.7634 10.8283 30.7634 9.85918C30.7634 8.89006 30.2184 8.10443 29.546 8.10443C28.8736 8.10443 28.3286 8.89006 28.3286 9.85918C28.3286 10.8283 28.8736 11.6139 29.546 11.6139Z" fill="#FFC529"/>
<path d="M32.5504 13.9659C33.0613 13.9659 33.4754 13.369 33.4754 12.6328C33.4754 11.8966 33.0613 11.2997 32.5504 11.2997C32.0396 11.2997 31.6254 11.8966 31.6254 12.6328C31.6254 13.369 32.0396 13.9659 32.5504 13.9659Z" fill="#FFC529"/>
<path d="M35.3864 16.1065C35.8972 16.1065 36.3113 15.5097 36.3113 14.7734C36.3113 14.0372 35.8972 13.4404 35.3864 13.4404C34.8755 13.4404 34.4614 14.0372 34.4614 14.7734C34.4614 15.5097 34.8755 16.1065 35.3864 16.1065Z" fill="#FFC529"/>
<path d="M14.4656 6.98898C15.6977 6.98898 16.6965 5.60347 16.6965 3.89436C16.6965 2.18525 15.6977 0.799744 14.4656 0.799744C13.2336 0.799744 12.2348 2.18525 12.2348 3.89436C12.2348 5.60347 13.2336 6.98898 14.4656 6.98898Z" fill="#FFC529"/>
<path d="M10.4449 9.42026C11.2751 9.42026 11.948 8.44888 11.948 7.25063C11.948 6.05237 11.2751 5.08099 10.4449 5.08099C9.61479 5.08099 8.94183 6.05237 8.94183 7.25063C8.94183 8.44888 9.61479 9.42026 10.4449 9.42026Z" fill="#FFC529"/>
<path d="M7.03428 11.6139C7.70665 11.6139 8.25172 10.8283 8.25172 9.85918C8.25172 8.89006 7.70665 8.10443 7.03428 8.10443C6.3619 8.10443 5.81683 8.89006 5.81683 9.85918C5.81683 10.8283 6.3619 11.6139 7.03428 11.6139Z" fill="#FFC529"/>
<path d="M4.01916 13.9659C4.53002 13.9659 4.94415 13.369 4.94415 12.6328C4.94415 11.8966 4.53002 11.2997 4.01916 11.2997C3.50831 11.2997 3.09418 11.8966 3.09418 12.6328C3.09418 13.369 3.50831 13.9659 4.01916 13.9659Z" fill="#FFC529"/>
<path d="M1.18322 16.1065C1.69408 16.1065 2.10821 15.5097 2.10821 14.7734C2.10821 14.0372 1.69408 13.4404 1.18322 13.4404C0.67237 13.4404 0.25824 14.0372 0.25824 14.7734C0.25824 15.5097 0.67237 16.1065 1.18322 16.1065Z" fill="#FFC529"/>
</g>
<path d="M55.6938 7.21944C55.8351 7.21944 55.8966 7.29322 55.8782 7.44079L54.2094 19.9842C54.1909 20.0826 54.1295 20.1318 54.025 20.1318H52.5959C52.5529 20.1318 52.5222 20.1318 52.5037 20.1318C52.4853 20.1256 52.4668 20.1133 52.4484 20.0949C52.43 20.0703 52.4177 20.0334 52.4115 19.9842L51.6002 12.0892L50.7888 19.9842C50.7827 20.0334 50.7704 20.0703 50.752 20.0949C50.7335 20.1133 50.7151 20.1256 50.6967 20.1318C50.6782 20.1318 50.6475 20.1318 50.6045 20.1318H49.1754C49.0709 20.1318 49.0094 20.0826 48.991 19.9842L47.3222 7.44079C47.3038 7.29322 47.3652 7.21944 47.5066 7.21944H48.8804C48.9849 7.21944 49.0463 7.28092 49.0648 7.4039L49.913 16.3042L50.7151 7.4039C50.7274 7.28092 50.7888 7.21944 50.8995 7.21944H52.3009C52.4115 7.21944 52.473 7.28092 52.4853 7.4039L53.2874 16.3042L54.1356 7.4039C54.1541 7.28092 54.2155 7.21944 54.32 7.21944H55.6938Z" fill="white"/>
<path d="M61.482 18.5085C61.605 18.5085 61.6664 18.57 61.6664 18.693V19.9473C61.6664 20.0703 61.605 20.1318 61.482 20.1318H57.6097C57.4868 20.1318 57.4253 20.0703 57.4253 19.9473V7.4039C57.4253 7.28092 57.4868 7.21944 57.6097 7.21944H61.3714C61.4943 7.21944 61.5558 7.28092 61.5558 7.4039V8.65824C61.5558 8.78122 61.4943 8.8427 61.3714 8.8427H59.0849V12.6795H61.0395C61.1624 12.6795 61.2239 12.741 61.2239 12.864V14.1183C61.2239 14.2413 61.1624 14.3028 61.0395 14.3028H59.0849V18.5085H61.482Z" fill="white"/>
<path d="M70.2932 13.0115C70.6252 13.3866 70.8556 13.6479 70.9847 13.7955C71.1138 13.9431 71.2582 14.1245 71.4181 14.3397C71.584 14.5549 71.6854 14.6932 71.7223 14.7547C71.7592 14.8101 71.7991 14.9146 71.8422 15.0683C71.8913 15.2159 71.9159 15.3296 71.9159 15.4096C71.9159 15.4833 71.9159 15.6186 71.9159 15.8154V18.0289C71.9159 18.6684 71.7069 19.2095 71.289 19.6522C70.871 20.0949 70.3055 20.3163 69.5925 20.3163C68.8795 20.3163 68.3141 20.0949 67.8961 19.6522C67.4781 19.2095 67.2692 18.6684 67.2692 18.0289V16.9221C67.2692 16.7992 67.3306 16.7377 67.4536 16.7377H68.7443C68.8673 16.7377 68.9287 16.7992 68.9287 16.9221V18.0289C68.9287 18.2134 68.984 18.3702 69.0947 18.4993C69.2053 18.6284 69.3713 18.693 69.5925 18.693C69.8138 18.693 69.9798 18.6284 70.0904 18.4993C70.201 18.3702 70.2564 18.2134 70.2564 18.0289V15.9998C70.2564 15.8031 70.2348 15.6494 70.1918 15.5387C70.1549 15.4219 70.0412 15.2405 69.8507 14.9945C69.6602 14.7486 69.3282 14.3704 68.855 13.8601C68.0928 13.0423 67.638 12.5166 67.4904 12.2829C67.3429 12.0431 67.2692 11.6834 67.2692 11.2038V9.3223C67.2692 8.68284 67.472 8.14175 67.8777 7.69904C68.2895 7.25633 68.8488 7.03497 69.5557 7.03497C70.2625 7.03497 70.8188 7.25633 71.2244 7.69904C71.6363 8.14175 71.8422 8.68284 71.8422 9.3223V10.4291C71.8422 10.5521 71.7807 10.6135 71.6578 10.6135H70.367C70.2441 10.6135 70.1826 10.5521 70.1826 10.4291V9.3223C70.1826 9.13169 70.1334 8.9749 70.0351 8.85193C69.9367 8.7228 69.7769 8.65824 69.5557 8.65824C69.3344 8.65824 69.1746 8.7228 69.0762 8.85193C68.9779 8.9749 68.9287 9.13169 68.9287 9.3223V10.9087C68.9287 10.9948 68.9287 11.0562 68.9287 11.0931C68.9349 11.13 68.9379 11.1761 68.9379 11.2315C68.9379 11.2868 68.9472 11.3329 68.9656 11.3698C68.984 11.4067 68.9994 11.4467 69.0117 11.4897C69.024 11.5328 69.0516 11.582 69.0947 11.6373C69.1438 11.6865 69.1838 11.7388 69.2145 11.7941C69.2514 11.8433 69.3129 11.914 69.3989 12.0062C69.485 12.0985 69.5587 12.1845 69.6202 12.2645C69.6878 12.3383 69.7892 12.4489 69.9244 12.5965C70.0597 12.7441 70.1826 12.8824 70.2932 13.0115Z" fill="white"/>
<path d="M77.8079 7.21944C77.9308 7.21944 77.9923 7.28092 77.9923 7.4039V8.69513C77.9923 8.81811 77.9308 8.8796 77.8079 8.8796H76.4803V19.9473C76.4803 20.0703 76.4188 20.1318 76.2959 20.1318H75.0051C74.8822 20.1318 74.8207 20.0703 74.8207 19.9473V8.8796H73.4931C73.3701 8.8796 73.3087 8.81811 73.3087 8.69513V7.4039C73.3087 7.28092 73.3701 7.21944 73.4931 7.21944H77.8079Z" fill="white"/>
<path d="M83.5933 18.5085C83.7162 18.5085 83.7777 18.57 83.7777 18.693V19.9473C83.7777 20.0703 83.7162 20.1318 83.5933 20.1318H79.721C79.5981 20.1318 79.5366 20.0703 79.5366 19.9473V7.4039C79.5366 7.28092 79.5981 7.21944 79.721 7.21944H83.4827C83.6056 7.21944 83.6671 7.28092 83.6671 7.4039V8.65824C83.6671 8.78122 83.6056 8.8427 83.4827 8.8427H81.1962V12.6795H83.1508C83.2737 12.6795 83.3352 12.741 83.3352 12.864V14.1183C83.3352 14.2413 83.2737 14.3028 83.1508 14.3028H81.1962V18.5085H83.5933Z" fill="white"/>
<path d="M87.7336 7.21944C88.4466 7.21944 89.012 7.44079 89.43 7.8835C89.848 8.32621 90.0569 8.8673 90.0569 9.50677V12.0155C90.0569 12.6549 89.848 13.196 89.43 13.6387C89.012 14.0814 88.4466 14.3028 87.7336 14.3028H87.0697V19.9473C87.0697 20.0703 87.0083 20.1318 86.8853 20.1318H85.5946C85.4716 20.1318 85.4102 20.0703 85.4102 19.9473V7.4039C85.4102 7.28092 85.4716 7.21944 85.5946 7.21944H87.7336ZM87.7336 12.6795C87.9548 12.6795 88.1208 12.615 88.2314 12.4858C88.3421 12.3567 88.3974 12.1999 88.3974 12.0155V9.50677C88.3974 9.3223 88.3421 9.16551 88.2314 9.03639C88.1208 8.90726 87.9548 8.8427 87.7336 8.8427H87.0697V12.6795H87.7336Z" fill="white"/>
<path d="M100.164 7.21944C100.287 7.21944 100.348 7.28092 100.348 7.4039V8.69513C100.348 8.81811 100.287 8.8796 100.164 8.8796H98.8364V19.9473C98.8364 20.0703 98.775 20.1318 98.652 20.1318H97.3613C97.2384 20.1318 97.1769 20.0703 97.1769 19.9473V8.8796H95.8492C95.7263 8.8796 95.6649 8.81811 95.6649 8.69513V7.4039C95.6649 7.28092 95.7263 7.21944 95.8492 7.21944H100.164Z" fill="white"/>
<path d="M102.36 7.69904C102.778 7.25633 103.343 7.03497 104.056 7.03497C104.769 7.03497 105.334 7.25633 105.752 7.69904C106.17 8.14175 106.379 8.68284 106.379 9.3223V18.0289C106.379 18.6684 106.17 19.2095 105.752 19.6522C105.334 20.0949 104.769 20.3163 104.056 20.3163C103.343 20.3163 102.778 20.0949 102.36 19.6522C101.942 19.2095 101.733 18.6684 101.733 18.0289V9.3223C101.733 8.68284 101.942 8.14175 102.36 7.69904ZM103.558 18.4993C103.669 18.6284 103.835 18.693 104.056 18.693C104.277 18.693 104.443 18.6284 104.554 18.4993C104.664 18.3702 104.72 18.2134 104.72 18.0289V9.3223C104.72 9.13784 104.664 8.98105 104.554 8.85193C104.443 8.7228 104.277 8.65824 104.056 8.65824C103.835 8.65824 103.669 8.7228 103.558 8.85193C103.447 8.98105 103.392 9.13784 103.392 9.3223V18.0289C103.392 18.2134 103.447 18.3702 103.558 18.4993Z" fill="white"/>
<path d="M111.325 10.6135C111.202 10.6135 111.141 10.5521 111.141 10.4291V9.3223C111.141 9.13784 111.085 8.98105 110.975 8.85193C110.864 8.7228 110.698 8.65824 110.477 8.65824C110.256 8.65824 110.09 8.7228 109.979 8.85193C109.868 8.98105 109.813 9.13784 109.813 9.3223V18.0289C109.813 18.2134 109.868 18.3702 109.979 18.4993C110.09 18.6284 110.256 18.693 110.477 18.693C110.698 18.693 110.864 18.6284 110.975 18.4993C111.085 18.3702 111.141 18.2134 111.141 18.0289V14.3028H110.661C110.538 14.3028 110.477 14.2413 110.477 14.1183V12.864C110.477 12.741 110.538 12.6795 110.661 12.6795H112.616C112.739 12.6795 112.8 12.741 112.8 12.864V18.0289C112.8 18.6684 112.591 19.2095 112.173 19.6522C111.755 20.0949 111.19 20.3163 110.477 20.3163C109.764 20.3163 109.198 20.0949 108.781 19.6522C108.363 19.2095 108.154 18.6684 108.154 18.0289V9.3223C108.154 8.68284 108.363 8.14175 108.781 7.69904C109.198 7.25633 109.764 7.03497 110.477 7.03497C111.19 7.03497 111.755 7.25633 112.173 7.69904C112.591 8.14175 112.8 8.68284 112.8 9.3223V10.4291C112.8 10.5521 112.739 10.6135 112.616 10.6135H111.325Z" fill="white"/>
<path d="M118.705 18.5085C118.828 18.5085 118.889 18.57 118.889 18.693V19.9473C118.889 20.0703 118.828 20.1318 118.705 20.1318H114.833C114.71 20.1318 114.648 20.0703 114.648 19.9473V7.4039C114.648 7.28092 114.71 7.21944 114.833 7.21944H118.594C118.717 7.21944 118.779 7.28092 118.779 7.4039V8.65824C118.779 8.78122 118.717 8.8427 118.594 8.8427H116.308V12.6795H118.262C118.385 12.6795 118.447 12.741 118.447 12.864V14.1183C118.447 14.2413 118.385 14.3028 118.262 14.3028H116.308V18.5085H118.705Z" fill="white"/>
<path d="M124.566 7.21944C124.689 7.21944 124.75 7.28092 124.75 7.4039V8.69513C124.75 8.81811 124.689 8.8796 124.566 8.8796H123.238V19.9473C123.238 20.0703 123.177 20.1318 123.054 20.1318H121.763C121.64 20.1318 121.579 20.0703 121.579 19.9473V8.8796H120.251C120.128 8.8796 120.067 8.81811 120.067 8.69513V7.4039C120.067 7.28092 120.128 7.21944 120.251 7.21944H124.566Z" fill="white"/>
<path d="M130.941 7.21944C131.064 7.21944 131.126 7.28092 131.126 7.4039V19.9473C131.126 20.0703 131.064 20.1318 130.941 20.1318H129.651C129.528 20.1318 129.466 20.0703 129.466 19.9473V14.3028H127.954V19.9473C127.954 20.0703 127.893 20.1318 127.77 20.1318H126.479C126.356 20.1318 126.295 20.0703 126.295 19.9473V7.4039C126.295 7.28092 126.356 7.21944 126.479 7.21944H127.77C127.893 7.21944 127.954 7.28092 127.954 7.4039V12.6795H129.466V7.4039C129.466 7.28092 129.528 7.21944 129.651 7.21944H130.941Z" fill="white"/>
<path d="M137.104 18.5085C137.227 18.5085 137.288 18.57 137.288 18.693V19.9473C137.288 20.0703 137.227 20.1318 137.104 20.1318H133.231C133.108 20.1318 133.047 20.0703 133.047 19.9473V7.4039C133.047 7.28092 133.108 7.21944 133.231 7.21944H136.993C137.116 7.21944 137.177 7.28092 137.177 7.4039V8.65824C137.177 8.78122 137.116 8.8427 136.993 8.8427H134.706V12.6795H136.661C136.784 12.6795 136.845 12.741 136.845 12.864V14.1183C136.845 14.2413 136.784 14.3028 136.661 14.3028H134.706V18.5085H137.104Z" fill="white"/>
<path d="M143.899 19.8735C143.918 19.9473 143.902 20.0088 143.853 20.058C143.81 20.1072 143.752 20.1318 143.678 20.1318H142.424C142.332 20.1318 142.27 20.0826 142.24 19.9842L140.608 14.3028H140.58V19.9473C140.58 20.0703 140.519 20.1318 140.396 20.1318H139.105C138.982 20.1318 138.92 20.0703 138.92 19.9473V7.4039C138.92 7.28092 138.982 7.21944 139.105 7.21944H141.244C141.957 7.21944 142.522 7.44079 142.94 7.8835C143.358 8.32621 143.567 8.8673 143.567 9.50677V12.0155C143.567 12.4766 143.45 12.8978 143.217 13.279C142.989 13.6541 142.667 13.9308 142.249 14.1091L143.899 19.8735ZM140.58 8.8427V12.6795H141.244C141.465 12.6795 141.631 12.615 141.742 12.4858C141.852 12.3567 141.908 12.1999 141.908 12.0155V9.50677C141.908 9.3223 141.852 9.16551 141.742 9.03639C141.631 8.90726 141.465 8.8427 141.244 8.8427H140.58Z" fill="white"/>
<path d="M61.694 28.4957V25.8545L60.5237 27.4825H60.4057L59.2502 25.8545V28.4957H58.6995V25.0528H59.3387L60.4746 26.666L61.6055 25.0528H62.2448V28.4957H61.694Z" fill="white"/>
<path d="M64.8187 24.984C65.3744 24.9889 65.8071 25.1659 66.112 25.5152C66.4168 25.8644 66.5693 26.2873 66.5693 26.7841C66.5693 27.0202 66.5299 27.2464 66.4562 27.4579C66.3824 27.6694 66.2742 27.8563 66.1365 28.0235C65.9989 28.1907 65.812 28.3235 65.5858 28.4219C65.3547 28.5203 65.0941 28.5645 64.8089 28.5645C64.5188 28.5645 64.2582 28.5154 64.032 28.417C63.8009 28.3186 63.614 28.1809 63.4763 28.0137C63.3387 27.8465 63.2305 27.6596 63.1567 27.453C63.083 27.2464 63.0485 27.0251 63.0485 26.789C63.0485 26.2677 63.2108 25.8348 63.5452 25.4955C63.8746 25.1561 64.2975 24.984 64.8187 24.984ZM63.5943 26.7939C63.5943 26.9513 63.6189 27.1038 63.6681 27.2513C63.7173 27.3989 63.7861 27.5317 63.8845 27.6546C63.9779 27.7776 64.1057 27.876 64.2631 27.9497C64.4204 28.0235 64.6024 28.0579 64.8089 28.0579C65.2121 28.0579 65.5121 27.9399 65.7186 27.6989C65.9202 27.4579 66.0234 27.1579 66.0234 26.7939C66.0234 26.5726 65.9792 26.366 65.9005 26.1742C65.8218 25.9873 65.6842 25.825 65.4973 25.6922C65.3104 25.5594 65.0843 25.4906 64.8187 25.4856C64.4303 25.4856 64.1303 25.6086 63.914 25.8496C63.6976 26.0955 63.5943 26.4103 63.5943 26.7939Z" fill="white"/>
<path d="M70.2978 25.0479L68.8718 28.5055H68.2965L66.8656 25.0479H67.4852L68.5817 27.8465L69.6832 25.0479H70.2978Z" fill="white"/>
<path d="M71.4814 28.4908H70.9356V25.0479H71.4814V28.4908Z" fill="white"/>
<path d="M72.9178 25.0479L74.8699 27.4973V25.0479H75.4206V28.4908H75.0027L73.0505 26.0611V28.4908H72.4949V25.0479H72.9178Z" fill="white"/>
<path d="M79.3076 25.4856L78.9634 25.8398C78.8454 25.7217 78.6979 25.6332 78.5307 25.5693C78.3635 25.5053 78.1963 25.4709 78.0341 25.4709C77.6407 25.4709 77.3309 25.5988 77.1047 25.8545C76.8736 26.1103 76.7605 26.43 76.7654 26.8038C76.7654 27.153 76.8687 27.4481 77.085 27.6841C77.2965 27.9251 77.6112 28.0432 78.0341 28.0432C78.3488 28.0432 78.629 27.9448 78.8749 27.7382V27.0398H77.916V26.548H79.3863V27.9596C79.0224 28.3629 78.57 28.5596 78.0341 28.5596C77.7292 28.5596 77.4538 28.5154 77.2178 28.417C76.9818 28.3186 76.79 28.1907 76.6523 28.0235C76.5097 27.8563 76.4015 27.6743 76.3327 27.4677C76.2589 27.2612 76.2245 27.0398 76.2245 26.8038C76.2245 26.2824 76.3819 25.8496 76.7064 25.4955C77.026 25.1414 77.4686 24.9643 78.0341 24.9643C78.5307 24.9643 78.9536 25.1414 79.3076 25.4856Z" fill="white"/>
<path d="M84.1274 27.6694L84.506 28.0481C84.1618 28.3924 83.7291 28.5596 83.2128 28.5596C82.9079 28.5596 82.6424 28.5104 82.4064 28.4121C82.1703 28.3137 81.9786 28.1809 81.836 28.0137C81.6885 27.8465 81.5803 27.6596 81.5065 27.453C81.4328 27.2464 81.3983 27.03 81.3983 26.7939C81.3983 26.5628 81.4328 26.3414 81.5114 26.1299C81.5852 25.9185 81.6934 25.7266 81.8409 25.5545C81.9835 25.3824 82.1753 25.2446 82.4113 25.1414C82.6473 25.043 82.9178 24.9889 83.2128 24.9889C83.7045 24.9889 84.1225 25.1659 84.4716 25.5102L84.1028 25.8644C83.8619 25.6283 83.5668 25.5102 83.2128 25.5102C82.7997 25.5102 82.485 25.6381 82.2687 25.8889C82.0474 26.1447 81.9392 26.4447 81.9442 26.789C81.9442 27.1382 82.0523 27.4333 82.2687 27.6792C82.4801 27.9251 82.7948 28.0432 83.2128 28.0432C83.3751 28.0432 83.5373 28.0137 83.7045 27.9448C83.8668 27.8809 84.0094 27.7874 84.1274 27.6694Z" fill="white"/>
<path d="M88.1306 28.4908H87.5848V27.0595H85.7654V28.4908H85.2147V25.0479H85.7654V26.548H87.5848V25.0479H88.1306V28.4908Z" fill="white"/>
<path d="M91.8557 28.4908L91.5262 27.7678H89.6626L89.3381 28.4908H88.7529L90.2969 25.0479H90.8968L92.4408 28.4908H91.8557ZM91.3246 27.2661L90.5969 25.6283L89.8691 27.2661H91.3246Z" fill="white"/>
<path d="M93.4861 25.0479L95.4382 27.4973V25.0479H95.989V28.4908H95.571L93.6189 26.0611V28.4908H93.0632V25.0479H93.4861Z" fill="white"/>
<path d="M99.8759 25.4856L99.5317 25.8398C99.4137 25.7217 99.2662 25.6332 99.099 25.5693C98.9318 25.5053 98.7646 25.4709 98.6024 25.4709C98.209 25.4709 97.8992 25.5988 97.673 25.8545C97.4419 26.1103 97.3288 26.43 97.3337 26.8038C97.3337 27.153 97.437 27.4481 97.6534 27.6841C97.8648 27.9251 98.1795 28.0432 98.6024 28.0432C98.9171 28.0432 99.1974 27.9448 99.4432 27.7382V27.0398H98.4844V26.548H99.9546V27.9596C99.5907 28.3629 99.1383 28.5596 98.6024 28.5596C98.2975 28.5596 98.0221 28.5154 97.7861 28.417C97.5501 28.3186 97.3583 28.1907 97.2206 28.0235C97.078 27.8563 96.9699 27.6743 96.901 27.4677C96.8273 27.2612 96.7928 27.0398 96.7928 26.8038C96.7928 26.2824 96.9502 25.8496 97.2747 25.4955C97.5943 25.1414 98.0369 24.9643 98.6024 24.9643C99.099 24.9643 99.5219 25.1414 99.8759 25.4856Z" fill="white"/>
<path d="M103.348 27.9497V28.4908H100.806V25.0479H103.334V25.584H101.357V26.5136H103.255V27.0251H101.357V27.9497H103.348Z" fill="white"/>
<path d="M106.127 28.4908H105.577V25.0528H108.011V25.5889H106.127V26.6365H107.917V27.148H106.127V28.4908Z" fill="white"/>
<path d="M110.361 24.984C110.917 24.9889 111.349 25.1659 111.654 25.5152C111.959 25.8644 112.111 26.2873 112.111 26.7841C112.111 27.0202 112.072 27.2464 111.998 27.4579C111.925 27.6694 111.816 27.8563 111.679 28.0235C111.541 28.1907 111.354 28.3235 111.128 28.4219C110.897 28.5203 110.636 28.5645 110.351 28.5645C110.061 28.5645 109.8 28.5154 109.574 28.417C109.343 28.3186 109.156 28.1809 109.018 28.0137C108.881 27.8465 108.773 27.6596 108.699 27.453C108.625 27.2464 108.591 27.0251 108.591 26.789C108.591 26.2677 108.753 25.8348 109.087 25.4955C109.417 25.1561 109.84 24.984 110.361 24.984ZM109.136 26.7939C109.136 26.9513 109.161 27.1038 109.21 27.2513C109.259 27.3989 109.328 27.5317 109.427 27.6546C109.52 27.7776 109.648 27.876 109.805 27.9497C109.963 28.0235 110.145 28.0579 110.351 28.0579C110.754 28.0579 111.054 27.9399 111.261 27.6989C111.462 27.4579 111.566 27.1579 111.566 26.7939C111.566 26.5726 111.521 26.366 111.443 26.1742C111.364 25.9873 111.226 25.825 111.039 25.6922C110.853 25.5594 110.626 25.4906 110.361 25.4856C109.972 25.4856 109.672 25.6086 109.456 25.8496C109.24 26.0955 109.136 26.4103 109.136 26.7939Z" fill="white"/>
<path d="M115.822 28.3924L115.881 28.4908H115.237L114.19 27.3005H113.462V28.4908H112.911V25.043C113.088 25.043 113.354 25.0479 113.713 25.0479C114.067 25.0479 114.337 25.0479 114.514 25.0479C114.893 25.0479 115.188 25.161 115.404 25.3824C115.621 25.6037 115.729 25.8693 115.729 26.1742C115.729 26.4496 115.65 26.6857 115.498 26.8825C115.345 27.0792 115.109 27.2021 114.795 27.2464L115.822 28.3924ZM114.514 25.5496H113.462V26.7988H114.509C114.726 26.7988 114.888 26.7398 115.001 26.6218C115.109 26.5037 115.168 26.3611 115.168 26.184C115.168 26.0168 115.109 25.8693 115.001 25.7414C114.888 25.6135 114.726 25.5496 114.514 25.5496Z" fill="white"/>
<path d="M121.295 25.0479L120.066 28.4957H119.579L119.122 27.2808L118.743 26.125L118.365 27.2858L117.912 28.4957H117.43L116.181 25.0479H116.796L117.671 27.6989L118.561 25.0479H118.915L119.825 27.6989L120.681 25.0479H121.295Z" fill="white"/>
<path d="M124.478 28.4908L124.148 27.7678H122.285L121.96 28.4908H121.375L122.919 25.0479H123.519L125.063 28.4908H124.478ZM123.947 27.2661L123.219 25.6283L122.491 27.2661H123.947Z" fill="white"/>
<path d="M128.596 28.3924L128.655 28.4908H128.011L126.964 27.3005H126.236V28.4908H125.685V25.043C125.862 25.043 126.128 25.0479 126.487 25.0479C126.841 25.0479 127.111 25.0479 127.288 25.0479C127.667 25.0479 127.962 25.161 128.178 25.3824C128.395 25.6037 128.503 25.8693 128.503 26.1742C128.503 26.4496 128.424 26.6857 128.272 26.8825C128.119 27.0792 127.883 27.2021 127.568 27.2464L128.596 28.3924ZM127.288 25.5496H126.236V26.7988H127.283C127.5 26.7988 127.662 26.7398 127.775 26.6218C127.883 26.5037 127.942 26.3611 127.942 26.184C127.942 26.0168 127.883 25.8693 127.775 25.7414C127.662 25.6135 127.5 25.5496 127.288 25.5496Z" fill="white"/>
<path d="M129.377 25.0479H130.68C130.96 25.0479 131.211 25.0971 131.437 25.1905C131.663 25.2889 131.84 25.4168 131.978 25.5791C132.115 25.7414 132.219 25.9185 132.292 26.1152C132.361 26.3119 132.401 26.5234 132.406 26.7398C132.41 26.9661 132.381 27.1776 132.312 27.3841C132.243 27.5907 132.14 27.7727 132.002 27.9399C131.865 28.1071 131.683 28.2448 131.457 28.3432C131.225 28.4416 130.965 28.4908 130.68 28.4908H129.377V25.0479ZM129.922 25.5742V27.9596H130.68C131.073 27.9596 131.368 27.8415 131.57 27.6005C131.766 27.3595 131.865 27.0694 131.86 26.7349C131.85 26.5333 131.811 26.3464 131.732 26.1742C131.653 26.007 131.52 25.8644 131.339 25.7463C131.157 25.6332 130.935 25.5742 130.68 25.5742H129.922Z" fill="white"/>
<defs>
<clipPath id="clip0_30_665">
<rect width="36.0608" height="34" fill="white" transform="translate(0.25824 0.799744)"/>
</clipPath>
</defs>
</svg>
