<svg width="85" height="89" viewBox="0 0 85 89" fill="none" xmlns="http://www.w3.org/2000/svg">
<g filter="url(#filter0_dd_30_793)">
<circle cx="42.5" cy="44.2998" r="40" fill="white"/>
</g>
<g filter="url(#filter1_dd_30_793)">
<circle cx="42.5" cy="44.2998" r="28" fill="url(#paint0_linear_30_793)"/>
</g>
<g clip-path="url(#clip0_30_793)">
<path d="M44.4776 35.4543H44.681C46.3844 35.4543 48.0878 35.4552 49.7912 35.457C49.9215 35.457 49.9802 35.4269 50.025 35.293C50.373 34.2405 51.4114 33.6267 52.5079 33.8137C53.5554 33.9924 54.3343 34.9383 54.3232 36.0181C54.3183 36.5397 54.1285 37.0426 53.7876 37.4375C53.4467 37.8323 52.9769 38.0935 52.4616 38.1746C51.9464 38.2557 51.419 38.1514 50.9734 37.8804C50.5277 37.6093 50.1926 37.189 50.0277 36.6941C49.9822 36.5565 49.9205 36.5201 49.7828 36.5208C48.7307 36.5258 47.6786 36.5231 46.6265 36.5228H46.3567C46.4235 36.5752 46.4485 36.6003 46.4782 36.6196C48.6459 38.03 49.8634 40.0211 50.1309 42.5929C50.1422 42.7034 50.1709 42.7669 50.2845 42.8127C51.0774 43.1316 51.5223 43.9379 51.3717 44.7626C51.2986 45.164 51.0893 45.5279 50.779 45.7929C50.4688 46.0579 50.0766 46.2078 49.6687 46.2172C49.2608 46.2266 48.8621 46.095 48.54 45.8446C48.2178 45.5942 47.9919 45.2403 47.9004 44.8427C47.8078 44.4487 47.855 44.0347 48.0339 43.6716C48.2129 43.3086 48.5125 43.019 48.8814 42.8524C49.0364 42.7816 49.0774 42.7111 49.0544 42.5441C48.6812 39.8358 47.2299 37.967 44.7004 36.9376C44.6539 36.9186 44.6058 36.9042 44.5581 36.8885C44.5351 36.8843 44.5119 36.8818 44.4886 36.8812C44.4839 36.948 44.4789 37.0111 44.4752 37.0749C44.4418 37.6357 44.012 38.0515 43.4485 38.0558C42.7695 38.0608 42.0901 38.0592 41.4111 38.0558C40.7879 38.0538 40.3677 37.6403 40.345 37.0138C40.345 36.9713 40.3356 36.9293 40.3286 36.8678C40.2471 36.8945 40.1787 36.9119 40.1139 36.9386C37.5494 37.9854 36.1029 39.8872 35.7555 42.6323C35.7388 42.7636 35.8089 42.79 35.9001 42.83C36.2745 42.9923 36.5812 43.2789 36.7686 43.6413C36.956 44.0037 37.0124 44.4197 36.9283 44.8189C36.8443 45.2182 36.6249 45.5761 36.3073 45.8322C35.9897 46.0883 35.5934 46.2268 35.1855 46.2244C34.7775 46.2219 34.3829 46.0786 34.0684 45.8187C33.7539 45.5588 33.5389 45.1983 33.4596 44.7981C33.3804 44.3979 33.4418 43.9826 33.6335 43.6224C33.8252 43.2623 34.1354 42.9794 34.5117 42.8217C34.6289 42.7733 34.6787 42.7215 34.6927 42.5879C34.9325 40.1577 36.0558 38.2369 38.0404 36.818C38.166 36.7282 38.2979 36.6474 38.4549 36.5438C38.4107 36.5352 38.3661 36.529 38.3213 36.5254C37.2137 36.5254 36.1059 36.5254 34.998 36.5201C34.8644 36.5201 34.8343 36.5819 34.7996 36.6871C34.4729 37.6737 33.5337 38.2783 32.478 38.1874C31.5017 38.1036 30.6774 37.317 30.5251 36.324C30.4422 35.7816 30.5638 35.2277 30.8662 34.7698C31.1686 34.3119 31.6303 33.9826 32.1617 33.8458C32.69 33.7086 33.2506 33.7738 33.7333 34.0286C34.216 34.2835 34.5861 34.7095 34.7709 35.2232C34.8377 35.4106 34.9208 35.457 35.1095 35.457C36.7795 35.4493 38.4495 35.4526 40.1195 35.4526H40.347C40.347 35.2987 40.347 35.1567 40.347 35.0144C40.347 34.3571 40.7722 33.9256 41.4312 33.9209C42.0902 33.9162 42.7448 33.9172 43.4018 33.9209C44.0364 33.9239 44.4706 34.3568 44.4779 34.9897C44.4793 35.141 44.4776 35.2896 44.4776 35.4543ZM32.7034 37.1286C32.9291 37.1302 33.1502 37.0647 33.3386 36.9404C33.527 36.8162 33.6743 36.6388 33.7618 36.4308C33.8494 36.2227 33.8731 35.9934 33.8302 35.7718C33.7872 35.5502 33.6795 35.3464 33.5206 35.1861C33.3617 35.0258 33.1587 34.9163 32.9375 34.8715C32.7163 34.8267 32.4868 34.8485 32.278 34.9343C32.0693 35.02 31.8906 35.1658 31.7648 35.3531C31.6389 35.5405 31.5715 35.761 31.5711 35.9867C31.5705 36.2881 31.6893 36.5774 31.9015 36.7914C32.1137 37.0055 32.402 37.1267 32.7034 37.1286ZM50.9732 35.9971C50.9749 36.2225 51.0434 36.4424 51.1701 36.6288C51.2967 36.8153 51.4759 36.96 51.6849 37.0446C51.8938 37.1293 52.1232 37.15 52.3439 37.1042C52.5646 37.0584 52.7668 36.9481 52.9249 36.7874C53.0829 36.6266 53.1897 36.4226 53.2318 36.2011C53.2738 35.9796 53.2492 35.7506 53.161 35.5431C53.0729 35.3356 52.9251 35.159 52.7365 35.0355C52.5479 34.912 52.3269 34.8473 52.1015 34.8494C51.9519 34.8504 51.8041 34.8809 51.6664 34.9391C51.5286 34.9974 51.4038 35.0823 51.299 35.1889C51.1941 35.2955 51.1114 35.4218 51.0555 35.5605C50.9996 35.6992 50.9716 35.8475 50.9732 35.9971ZM41.4262 36.9687C41.4446 36.9763 41.4639 36.9819 41.4836 36.9854C42.0848 36.9854 42.686 36.9854 43.2872 36.9887C43.4021 36.9887 43.4095 36.9309 43.4091 36.8427C43.4074 36.2863 43.4024 35.7299 43.4125 35.1727C43.4155 35.0171 43.36 34.9884 43.2207 34.99C42.6756 34.9964 42.1302 34.992 41.5841 34.9927C41.5317 34.9927 41.4789 35.0001 41.4265 35.0041L41.4262 36.9687ZM49.6195 45.143C49.8048 45.143 49.9826 45.0694 50.1136 44.9383C50.2446 44.8073 50.3182 44.6296 50.3182 44.4443C50.3182 44.2589 50.2446 44.0812 50.1136 43.9502C49.9826 43.8191 49.8048 43.7455 49.6195 43.7455C49.4342 43.7455 49.2565 43.8191 49.1254 43.9502C48.9944 44.0812 48.9208 44.2589 48.9208 44.4443C48.9208 44.6296 48.9944 44.8073 49.1254 44.9383C49.2565 45.0694 49.4342 45.143 49.6195 45.143ZM35.8921 44.4379C35.8907 44.2999 35.8485 44.1653 35.7707 44.0513C35.6929 43.9372 35.5831 43.8488 35.4551 43.7971C35.3271 43.7454 35.1866 43.7327 35.0515 43.7608C34.9163 43.7888 34.7925 43.8563 34.6956 43.9546C34.5987 44.053 34.5332 44.1779 34.5072 44.3134C34.4812 44.449 34.496 44.5893 34.5496 44.7165C34.6033 44.8437 34.6934 44.9521 34.8086 45.0282C34.9238 45.1042 35.059 45.1444 35.1971 45.1437C35.2892 45.1432 35.3803 45.1246 35.4652 45.0888C35.5501 45.053 35.6271 45.0008 35.6917 44.9351C35.7563 44.8695 35.8073 44.7917 35.8418 44.7062C35.8762 44.6208 35.8935 44.5294 35.8924 44.4372L35.8921 44.4379Z" fill="white"/>
<path d="M47.2037 51.5557C47.7047 51.8563 48.0253 52.2625 48.1095 52.8306C48.1481 53.0776 48.1326 53.3301 48.064 53.5706C47.9953 53.811 47.8752 54.0336 47.712 54.223C47.5487 54.4124 47.3462 54.5641 47.1185 54.6674C46.8909 54.7708 46.6434 54.8234 46.3934 54.8216C44.3279 54.8247 42.2626 54.8247 40.1973 54.8216C39.6184 54.8216 39.0395 54.8216 38.4605 54.8216C37.6563 54.8216 36.9749 54.3226 36.7588 53.5714C36.5427 52.8202 36.841 52.0514 37.522 51.6198C37.5497 51.6025 37.5771 51.5834 37.6132 51.5594C37.6025 51.5172 37.5897 51.4757 37.5748 51.4348C37.2478 50.6429 36.9094 49.8553 36.5951 49.0584C36.1693 47.9792 36.3032 46.9686 37.0457 46.0671C38.6663 44.0998 40.2918 42.137 41.9221 40.1787C42.2388 39.7969 42.5778 39.7962 42.8954 40.1787C44.5413 42.1613 46.1987 44.1346 47.8262 46.1322C48.5443 47.014 48.6395 48.0227 48.2197 49.0741C47.9124 49.844 47.5884 50.6071 47.2721 51.3733C47.2508 51.4301 47.23 51.4872 47.2037 51.5557ZM42.9649 41.9475C42.9568 42.0143 42.9498 42.0451 42.9498 42.0754C42.9498 43.3446 42.9498 44.6138 42.9468 45.8831C42.9468 45.9946 42.9946 46.0323 43.0881 46.0704C43.86 46.3857 44.3069 46.9565 44.3603 47.7925C44.4271 48.8112 43.704 49.6676 42.6783 49.8299C41.7377 49.9782 40.7812 49.3526 40.5267 48.4225C40.3954 47.9564 40.4432 47.458 40.6606 47.0254C40.8781 46.5927 41.2496 46.2571 41.702 46.0845C41.84 46.031 41.8804 45.9659 41.8797 45.8206C41.873 44.6128 41.8757 43.4048 41.8754 42.197V41.9722C41.8564 41.9748 41.8382 41.9815 41.822 41.9918C41.8058 42.002 41.792 42.0156 41.7815 42.0317C40.4599 43.6252 39.1319 45.2134 37.8199 46.8146C37.3857 47.3436 37.3136 47.9599 37.5634 48.5931C37.9088 49.4675 38.2788 50.3323 38.6322 51.2033C38.6793 51.3192 38.7398 51.357 38.866 51.357C41.2321 51.3525 43.5979 51.3525 45.9635 51.357C46.0798 51.357 46.1389 51.3266 46.1846 51.2137C46.536 50.3476 46.9034 49.4879 47.2491 48.6198C47.5163 47.9488 47.4221 47.3172 46.9592 46.7568C45.7187 45.2551 44.4757 43.7556 43.2301 42.2581C43.1502 42.1613 43.0677 42.0678 42.9649 41.9475ZM42.4094 53.7541H45.4799C45.7915 53.7541 46.1031 53.7601 46.4151 53.7504C46.5155 53.7483 46.6141 53.7233 46.7033 53.6773C46.7926 53.6313 46.8702 53.5655 46.9302 53.485C46.9901 53.4044 47.0309 53.3112 47.0495 53.2125C47.068 53.1138 47.0637 53.0122 47.037 52.9154C46.9565 52.6101 46.693 52.4271 46.3272 52.4268H38.4996C38.455 52.4257 38.4104 52.4272 38.366 52.4311C37.9348 52.4822 37.6666 52.8847 37.7922 53.2908C37.8817 53.5811 38.1376 53.7551 38.4873 53.7554C39.7948 53.7554 41.1021 53.755 42.4094 53.7541ZM42.4071 48.7775C42.5823 48.7783 42.7538 48.7271 42.8998 48.6303C43.0458 48.5335 43.1599 48.3956 43.2274 48.2339C43.295 48.0723 43.313 47.8943 43.2793 47.7223C43.2456 47.5504 43.1615 47.3924 43.0379 47.2683C42.9143 47.1442 42.7565 47.0596 42.5848 47.0252C42.413 46.9908 42.2349 47.0082 42.073 47.0751C41.9111 47.1421 41.7727 47.2556 41.6754 47.4013C41.5781 47.5469 41.5262 47.7182 41.5263 47.8934C41.5276 48.1269 41.6208 48.3504 41.7856 48.5158C41.9504 48.6812 42.1736 48.7751 42.4071 48.7772V48.7775Z" fill="white"/>
</g>
<defs>
<filter id="filter0_dd_30_793" x="0.5" y="0.299805" width="84" height="88" filterUnits="userSpaceOnUse" color-interpolation-filters="sRGB">
<feFlood flood-opacity="0" result="BackgroundImageFix"/>
<feColorMatrix in="SourceAlpha" type="matrix" values="0 0 0 0 0 0 0 0 0 0 0 0 0 0 0 0 0 0 127 0" result="hardAlpha"/>
<feOffset dy="-2"/>
<feGaussianBlur stdDeviation="1"/>
<feColorMatrix type="matrix" values="0 0 0 0 0 0 0 0 0 0 0 0 0 0 0 0 0 0 0.05 0"/>
<feBlend mode="normal" in2="BackgroundImageFix" result="effect1_dropShadow_30_793"/>
<feColorMatrix in="SourceAlpha" type="matrix" values="0 0 0 0 0 0 0 0 0 0 0 0 0 0 0 0 0 0 127 0" result="hardAlpha"/>
<feOffset dy="2"/>
<feGaussianBlur stdDeviation="1"/>
<feComposite in2="hardAlpha" operator="out"/>
<feColorMatrix type="matrix" values="0 0 0 0 0 0 0 0 0 0 0 0 0 0 0 0 0 0 0.05 0"/>
<feBlend mode="normal" in2="effect1_dropShadow_30_793" result="effect2_dropShadow_30_793"/>
<feBlend mode="normal" in="SourceGraphic" in2="effect2_dropShadow_30_793" result="shape"/>
</filter>
<filter id="filter1_dd_30_793" x="12.5" y="12.2998" width="60" height="64" filterUnits="userSpaceOnUse" color-interpolation-filters="sRGB">
<feFlood flood-opacity="0" result="BackgroundImageFix"/>
<feColorMatrix in="SourceAlpha" type="matrix" values="0 0 0 0 0 0 0 0 0 0 0 0 0 0 0 0 0 0 127 0" result="hardAlpha"/>
<feOffset dy="-2"/>
<feGaussianBlur stdDeviation="1"/>
<feColorMatrix type="matrix" values="0 0 0 0 0 0 0 0 0 0 0 0 0 0 0 0 0 0 0.05 0"/>
<feBlend mode="normal" in2="BackgroundImageFix" result="effect1_dropShadow_30_793"/>
<feColorMatrix in="SourceAlpha" type="matrix" values="0 0 0 0 0 0 0 0 0 0 0 0 0 0 0 0 0 0 127 0" result="hardAlpha"/>
<feOffset dy="2"/>
<feGaussianBlur stdDeviation="1"/>
<feComposite in2="hardAlpha" operator="out"/>
<feColorMatrix type="matrix" values="0 0 0 0 0 0 0 0 0 0 0 0 0 0 0 0 0 0 0.05 0"/>
<feBlend mode="normal" in2="effect1_dropShadow_30_793" result="effect2_dropShadow_30_793"/>
<feBlend mode="normal" in="SourceGraphic" in2="effect2_dropShadow_30_793" result="shape"/>
</filter>
<linearGradient id="paint0_linear_30_793" x1="42.5" y1="16.2998" x2="42.5" y2="72.2998" gradientUnits="userSpaceOnUse">
<stop stop-color="#FF0260"/>
<stop offset="1" stop-color="#99013A"/>
</linearGradient>
<clipPath id="clip0_30_793">
<rect width="23.8229" height="21.046" fill="white" transform="translate(30.5 33.7769)"/>
</clipPath>
</defs>
</svg>
