<svg width="153" height="19" viewBox="0 0 153 19" fill="none" xmlns="http://www.w3.org/2000/svg">
<path d="M15.4765 15.2889C15.4765 16.2917 14.8322 16.9098 13.7273 17.5774C12.6982 18.1692 11.363 18.5803 9.64 18.5803C5.06291 18.5803 0.512054 14.8253 0.512054 9.39987C0.512054 3.97442 5.11538 0.219452 9.59044 0.219452C11.3396 0.219452 12.7273 0.656754 13.7565 1.22233C14.7856 1.88994 15.4794 2.53424 15.4794 3.51088C15.4794 4.61579 14.6048 5.23385 13.6807 5.23385C12.9606 5.23385 12.4708 4.87526 12.188 4.69451C11.9052 4.53999 11.0569 3.87238 9.64291 3.87238C6.89083 3.87238 4.57605 6.31544 4.57605 9.39987C4.57605 12.4843 6.86459 14.9274 9.69248 14.9274C11.0539 14.9274 11.9052 14.2598 12.188 14.1052C12.4708 13.9245 12.9343 13.5659 13.6807 13.5659C14.6077 13.5659 15.4794 14.184 15.4794 15.2889H15.4765Z" fill="white"/>
<path d="M33.9919 9.39987C33.9919 14.8253 29.5431 18.5803 25.0418 18.5803C20.5405 18.5803 16.0684 14.8253 16.0684 9.39987C16.0684 3.97442 20.5172 0.219452 25.0418 0.219452C29.5664 0.219452 33.9919 3.97442 33.9919 9.39987ZM20.1324 9.39987C20.1324 12.6913 22.3684 14.904 25.0447 14.904C27.721 14.904 29.9571 12.6913 29.9571 9.39987C29.9571 6.10845 27.721 3.8957 25.0447 3.8957C22.3684 3.8957 20.1324 6.10845 20.1324 9.39987Z" fill="white"/>
<path d="M50.8872 9.299C50.8872 15.2638 46.6191 18.4007 41.631 18.4007H37.876C36.6428 18.4007 35.742 17.4999 35.742 16.2667V2.5354C35.742 1.30221 36.6428 0.401367 37.876 0.401367H41.631C46.6191 0.401367 50.8872 3.53828 50.8872 9.299ZM47.0039 9.299C47.0039 5.33996 45.0244 3.66655 41.631 3.66655H39.599V15.1355H41.631C45.0244 15.1355 47.0039 13.465 47.0039 9.299Z" fill="white"/>
<path d="M63.0983 15.0335C64.0254 15.0335 64.7951 15.7798 64.7951 16.704C64.7951 17.6281 64.0225 18.4007 63.0983 18.4007H54.5097C53.2765 18.4007 52.3757 17.4999 52.3757 16.2667V2.5354C52.3757 1.30221 53.2765 0.401367 54.5097 0.401367H62.8418C63.7689 0.401367 64.5385 1.1477 64.5385 2.07186C64.5385 2.99603 63.766 3.76859 62.8418 3.76859H56.2327V7.75387H60.4512C61.3783 7.75387 62.1479 8.5002 62.1479 9.34856C62.1479 10.1969 61.3754 10.9957 60.4512 10.9957H56.2327V15.0335H63.0983Z" fill="white"/>
<path d="M78.8081 0.327881C79.3999 0.327881 79.8868 0.840982 79.8868 1.4328V17.3768C79.8868 17.9686 79.397 18.4817 78.8081 18.4817C78.1638 18.4817 77.7032 17.9686 77.7032 17.3768V10.5637H68.342V17.3768C68.342 17.9686 67.8523 18.4817 67.2634 18.4817C66.6745 18.4817 66.1584 17.9686 66.1584 17.3768V1.4328C66.1584 0.840982 66.6482 0.327881 67.2634 0.327881C67.8785 0.327881 68.342 0.840982 68.342 1.4328V8.65994H77.7032V1.4328C77.7032 0.840982 78.1668 0.327881 78.8081 0.327881Z" fill="white"/>
<path d="M95.8909 1.37277V11.7106C95.8909 16.0311 92.9347 18.5762 88.9494 18.5762C84.9641 18.5762 82.0051 16.0311 82.0051 11.7106V1.37277C82.0051 0.807192 82.4686 0.317413 83.0837 0.317413C83.6989 0.317413 84.1887 0.807192 84.1887 1.37277V11.6843C84.1887 15.002 86.1682 16.6987 88.9465 16.6987C91.7248 16.6987 93.7043 15.002 93.7043 11.6843V1.37277C93.7043 0.807192 94.1941 0.317413 94.8093 0.317413C95.4244 0.317413 95.8879 0.807192 95.8879 1.37277H95.8909Z" fill="white"/>
<path d="M112.062 9.40104C112.062 15.1355 108.359 18.4007 103.036 18.4007H99.1788C98.4849 18.4007 97.9951 17.9109 97.9951 17.2171V1.585C97.9951 0.891145 98.4849 0.401367 99.1788 0.401367H103.036C108.359 0.401367 112.062 3.66655 112.062 9.40104ZM109.875 9.40104C109.875 4.66943 107.356 2.27885 103.036 2.27885H100.182V16.5261H103.036C107.356 16.5261 109.875 14.1356 109.875 9.40395V9.40104Z" fill="white"/>
<path d="M127.601 9.40104C127.601 15.1355 123.898 18.4007 118.575 18.4007H114.718C114.024 18.4007 113.534 17.9109 113.534 17.2171V1.585C113.534 0.891145 114.024 0.401367 114.718 0.401367H118.575C123.898 0.401367 127.601 3.66655 127.601 9.40104ZM125.414 9.40104C125.414 4.66943 122.895 2.27885 118.575 2.27885H115.72V16.5261H118.575C122.895 16.5261 125.414 14.1356 125.414 9.40395V9.40104Z" fill="white"/>
<path d="M138.963 16.476C139.502 16.476 139.939 16.887 139.939 17.4264C139.939 17.9657 139.502 18.403 138.963 18.403H130.246C129.552 18.403 129.062 17.9132 129.062 17.2194V1.45904C129.062 0.840982 129.552 0.327881 130.167 0.327881C130.782 0.327881 131.246 0.840982 131.246 1.45904V16.476H138.96H138.963Z" fill="white"/>
<path d="M151.928 16.4737C152.441 16.4737 152.905 16.8847 152.905 17.4241C152.905 17.9634 152.441 18.4007 151.928 18.4007H142.465C141.771 18.4007 141.281 17.9109 141.281 17.2171V1.585C141.281 0.891145 141.771 0.401367 142.465 0.401367H151.672C152.185 0.401367 152.648 0.838669 152.648 1.35177C152.648 1.91735 152.185 2.32841 151.672 2.32841H143.468V8.42148H149.255C149.768 8.42148 150.205 8.85878 150.205 9.34856C150.205 9.86166 149.768 10.2756 149.255 10.2756H143.468V16.4737H151.928Z" fill="white"/>
</svg>
